<svg viewBox="0 0 1024 935" xmlns="http://www.w3.org/2000/svg" xmlns:xlink="http://www.w3.org/1999/xlink"><linearGradient id="a" gradientTransform="matrix(292 0 0 -226 -24571 170239.18)" gradientUnits="userSpaceOnUse" x1="86.17" x2="86.27" y1="751.83" y2="750.17"><stop offset="0" stop-opacity="0"/><stop offset=".99"/></linearGradient><linearGradient id="b" gradientTransform="matrix(267 0 0 -301 -22359 226263.93)" x1="86.13" x2="86.58" xlink:href="#a" y1="751.3" y2="749.74"/><linearGradient id="c" gradientTransform="matrix(308 0 0 -643 -25941 483104.99)" gradientUnits="userSpaceOnUse" x1="87.91" x2="84.8" y1="751.71" y2="749.93"><stop offset=".02" stop-color="#fff" stop-opacity="0"/><stop offset=".58" stop-color="#fff" stop-opacity=".39"/><stop offset=".68" stop-color="#fff" stop-opacity=".68"/><stop offset="1" stop-color="#fff"/></linearGradient><linearGradient id="d" gradientTransform="matrix(210 0 0 -387 -17432 291043.91)" x1="83.56" x2="90.2" xlink:href="#a" y1="751.48" y2="750.1"/><linearGradient id="e" gradientTransform="matrix(62 0 0 -107 -4517 80756.5)" gradientUnits="userSpaceOnUse" x1="84.61" x2="85.61" y1="752.15" y2="752.15"><stop offset="0" stop-color="#e5c5d5"/><stop offset=".42" stop-color="#ead4d1"/><stop offset="1" stop-color="#f0e9cb"/></linearGradient><linearGradient id="f" gradientTransform="matrix(33 0 0 -46 -2232 34925.78)" x1="83.39" x2="84.39" xlink:href="#e" y1="754.43" y2="754.43"/><linearGradient id="g" gradientTransform="matrix(28 0 0 -47 -1554 35622.71)" x1="82.93" x2="83.93" xlink:href="#e" y1="754.34" y2="754.34"/><linearGradient id="h" gradientTransform="matrix(119 0 0 -279 -9398 210195.49)" x1="86.64" x2="85.84" xlink:href="#a" y1="751.02" y2="751.11"/><linearGradient id="i" gradientTransform="matrix(79 0 0 -114 -6489 86000.03)" x1="84.91" x2="85.91" xlink:href="#e" y1="752.04" y2="752.04"/><linearGradient id="j" gradientTransform="matrix(20 0 0 -48 -1272 36590.63)" x1="81.7" x2="82.7" xlink:href="#e" y1="754.26" y2="754.26"/><linearGradient id="k" gradientTransform="matrix(22 0 0 -129 -1514 97484.96)" x1="85.41" x2="77.09" xlink:href="#a" y1="752.26" y2="751.06"/><path d="m437.54 811.08c141 11.76 284-31.25 401.88-109.52 54.4-36.12 105.44-81.56 131.68-141.37s22.49-136.19-22.64-183.39c-33.77-35.35-64-68.89-77-112.75-11.84-39.85-16-82.21-33.18-116.79-62.59-126.09-401.71-137.26-515.28-5.97-109.25 126.42-362.63 191.48-260 460.87 49.3 129.51 247.87 198.34 374.54 208.92z" fill="#bebef8" opacity=".18"/><path d="m501.18 570.86-69.18 178.14 266.64-128 62.36-172z" fill="#acace3"/><path d="m501 571c-1.35-4.05-46-116.39-46-116.39l259.55-109.61 32.45 111z" fill="#acace3"/><path d="m501 571c-1.35-4.05-46-116.39-46-116.39l259.55-109.61 32.45 111z" fill="url(#a)"/><path d="m533.9 350.54-78.9 103.46 259.88-109.54 70.12-103.46z" fill="#acace3"/><path d="m524.42 198.78-7.42-68.44 264.5-80.34 1.28 102 1.22 89.38-250.77 109.62z" fill="#acace3"/><path d="m524.42 198.78-7.42-68.44 264.5-80.34 1.28 102 1.22 89.38-250.77 109.62z" fill="url(#b)"/><path d="m536.54 144.14 14.14 196.33s-72.3 99.63-73.74 104 40.46 111.12 40.46 111.12-57.83 164.66-56.4 160.33 235.65-112.66 235.65-112.66l18.85-138.56-37.59-96.77 91.09-125.67-1.51-169.26z" fill="url(#c)"/><path d="m581.26 368.36c-19.64-28.07-46.73-58.79-37.34-91.73a427.78 427.78 0 0 0 127.14 69.31c17.74-22-21.26-55.22-8.43-80.39a22.14 22.14 0 0 1 41.84 10.12 63 63 0 0 0 47.53-25.67c1.16 38.08-28.51 69-53.71 97.63-3.3 3.75-6.7 7.86-7.18 12.8-.39 4.09 1.29 8.08 2.84 11.91 31.21 76.84 19.25 163.5 6.79 245.48 0 10-60.66 29.37-70.74 12.56-11.11-18.55 2.92-65.76 2.66-87.09-.76-61.64-15.58-123.98-51.4-174.93z" fill="url(#d)" opacity=".44"/><path d="m866.54 742.23c3.71 6.9 2.58 15.72.74 23.36s-7.84 14.87-15.67 15.39c-11.49.76-14.9-14.34-23-22.53-29.15-29.56-44.66-53.7-48.9-83.52-2.67-18.93-2.49-38.38-7.91-56.76-4.22-14.25-11.71-27.33-16.06-41.48-6-19.38-5.86-40-5.72-60.29q21-2.18 41.78-5.83c8.15-1.4 33-10.91 40.27-8 12.65 5.2 8.24 60.31 6.8 74.46-6.42 62.61-6.42 101.94 27.66 165.23z" fill="#3e3e54"/><path d="m556.16 229.31a45.75 45.75 0 0 0 -16.34 8.84 19.6 19.6 0 0 0 -6.73 16.68 30 30 0 0 0 5.69 11.74c28.08 41.2 57.75 83.91 101.39 108.06 15.47 8.54 32.28 14.5 47.47 23.52s29.2 21.85 34.19 38.85c6.54 21.91-3 47.32 7.8 67.51a18.27 18.27 0 0 0 6.23 7.23 24.19 24.19 0 0 0 10.76 2.66c25.9 2.18 53.07 3.83 76.83-6.71a22.15 22.15 0 0 0 9.13-6.36 25.41 25.41 0 0 0 3.86-10.15 419.79 419.79 0 0 0 5.95-144.08c-8-59.82-13.07-127.18-43.85-179.08-9.45 16.16-4.68 36.43-1.44 54.88 2.42 13.85 3.81 27.85 5.21 41.86 1.18 11.69 2.18 24.26-3.57 34.52-4 7.12-10.89 12.24-18 16.22-18.74 10.5-40.5 14.42-61.88 17.1-20.93 2.64-43.2 4-62.24-5.12-13.22-6.36-23.64-17.2-33.74-27.83-22.55-23.65-44.33-46.65-66.72-70.34z" fill="#fff"/><path d="m731.83 260.63a54.91 54.91 0 0 0 -2.54 9 28.24 28.24 0 0 0 13.28 28.16 46.32 46.32 0 0 1 6.51 3.86 16.79 16.79 0 0 1 5.38 11.88 51.19 51.19 0 0 1 -1.46 13.33c-.22 1.09-.26 2.55.76 3a2.46 2.46 0 0 0 1 .13 50.77 50.77 0 0 0 26.75-7.76 19.1 19.1 0 0 0 6.38-5.91c2.54-4.36 2.17-9.59 1.93-14.56-.39-13.08 1.84-26.15 1-39.23s-5.49-26.85-16.29-34.17a31.88 31.88 0 0 0 -15.6-5.16c-3.75-.28-11.52-.7-14.58 2-1.67 1.48-2.17 5.34-2.89 7.37q-1.69 4.9-3.36 9.81z" fill="url(#e)"/><path d="m765.31 196.15c11.54 1.05 23.6.44 34.18 5.21 15.6 7 24.34 24.68 25.34 41.79a55.59 55.59 0 0 1 -9.51 35.66 40.34 40.34 0 0 1 -31.84 17.19c-6.24 0-13.41-2.65-15.12-8.75a15 15 0 0 1 2.18-10.94c1.55-2.82 3.56-5.84 2.92-9a7.92 7.92 0 0 0 -6.54-5.64 22.88 22.88 0 0 0 -9 .63c1.61-7.5 3.1-15.84-.76-22.47-5.47-9.36-19.22-11.16-24.78-20.48-2.18-3.83-2-10 2.18-11.35a6.71 6.71 0 0 0 2.29-.85c1.27-1.14.5-3.17-.2-4.73-1.48-3.3-3.29-9.45-1.85-13.13 2.18-5.49 2.84-3 7-.66a56.59 56.59 0 0 0 23.51 7.5z" fill="#3e3e54"/><path d="m540.7 208.25a14.91 14.91 0 0 0 -2.17-4.34 4.52 4.52 0 0 0 -4.35-1.63 2.71 2.71 0 0 0 -1.65 3.87 30.4 30.4 0 0 1 -3.3-4.34 5.89 5.89 0 0 0 -4.54-2.8 5 5 0 0 0 -4.35 3.91 14.71 14.71 0 0 0 0 6.23 58.57 58.57 0 0 1 1.09 15.07c-.43 4.34-1.85 8.88-.76 13.16 1.3 5.32 7.63 9.34 12.54 6.9a18.79 18.79 0 0 0 4.85-4.34c4.35-4.52 9.45-6.9 15-9.62-1.13-3.45-4.61-7-6.52-10.27a91 91 0 0 1 -5.84-11.8z" fill="url(#f)"/><path d="m792.88 156.73a21.37 21.37 0 0 0 -8.88-11.73l-1 6.76a3.57 3.57 0 0 1 -.59 1.75 2.68 2.68 0 0 1 -1.13.82 18.56 18.56 0 0 1 -6.75.91 7.31 7.31 0 0 0 -6 2.72 6.27 6.27 0 0 0 .57 6.35 11.88 11.88 0 0 0 3.59 3.76 44.43 44.43 0 0 1 6.12 3.67c3.07 2.81 3.37 7.39 4.2 11.43s3.29 8.64 7.44 8.82c2.37-2.16 2.74-5.64 3-8.82.33-4.52 2.18-8.84 2.46-13.27s-1.72-9.27-3.09-13.18z" fill="url(#g)"/><path d="m866.54 742.23c3.71 6.9 2.58 15.72.74 23.36s-7.84 14.87-15.67 15.39c-11.49.76-14.9-14.34-23-22.53-29.15-29.56-44.66-53.7-48.9-83.52-2.67-18.93-2.49-38.38-7.91-56.76-4.22-14.25-11.71-27.33-16.06-41.48-6-19.38-5.86-40-5.72-60.29q21-2.18 41.78-5.83c8.15-1.4 33-10.91 40.27-8 12.65 5.2 8.24 60.31 6.8 74.46-6.42 62.61-6.42 101.94 27.66 165.23z" fill="url(#h)"/><path d="m710.3 804.79c1-26.19 10.27-26.63 13.7-52.71 1.61-12.35 1.13-25 4.12-37.1a122.78 122.78 0 0 1 10.23-25.1c25.41-50.61 64.8-89.71 76.12-145.21 1.48-7.29 5.06-38.28 5.54-40.66 0 0-38.45 7.36-45.8 7.16l-34.26-.92a19.62 19.62 0 0 0 -9.09 1.2 17.65 17.65 0 0 0 -7.33 8.47c-10 19.86-10.19 43-13.5 64.93-5.93 39.48-22.31 76.72-29.49 116-2.81 15.54-4.19 31.3-5.56 47-1.7 19.64 0 15.28-1.74 34.92a13.76 13.76 0 0 0 .83 7.7 13.57 13.57 0 0 0 5.23 4.67c9.81 6.22 20.2 13.84 31 9.63z" fill="#3e3e54"/><path d="m637 808.7c-.22 5.21 5.57 8.39 10.55 10.09a200.3 200.3 0 0 0 47.26 10.09 12.59 12.59 0 0 0 3.48 0c5-1 6.68-7.1 7.4-12.09l1.17-8.28a3.35 3.35 0 0 0 -.5-2.86c-.76-.77-2-.6-3.16-.47-13.06 1.51-21.06-11.9-33.77-11.14-7.55.34-32 4.88-32.44 14.67zm180.2-30.43c-2.18.66-4.59 1.71-5.15 3.9a6.07 6.07 0 0 0 1.11 4.38 26.63 26.63 0 0 0 16.84 11.09 77.8 77.8 0 0 0 20.57 1.12l9.19-.28a8.32 8.32 0 0 0 4.37-1 7.93 7.93 0 0 0 2.62-6.07 81.39 81.39 0 0 0 -.28-16.13 2.7 2.7 0 0 0 -1.09-2.19c-.76-.39-1.92.5-2.69 1.21-6.31 5.72-15 1-22.08.13-7.55-.74-16.35 1.65-23.4 3.84z" fill="#3e3e54"/><g fill="none" stroke="#fff"><path d="m605 227s1.2 2.53 3 7" stroke-width=".58"/><path d="m613.13 247c10.06 30.94 22.49 89.47-10.72 126.57-46.86 52.37-75.28 46.74-63.9 93.49 7.83 32.23 19.69 68.52 26.25 87.94" stroke-dasharray="6.74" stroke-width=".58"/><path d="m567.33 562c1.67 4.52 2.67 7.11 2.67 7.11s-2 2.18-5 5.89" stroke-width=".58"/><path d="m555.61 587.07c-14.08 20.76-30 51.74 2.18 49.85 48.19-2.83 117.65-53.79 106.32-82.1s-45.38-43.89-56.77-68 24-14.15 43.93-43.87 5.68-41.06-1.42-72.2 21.27-4.36 35.46-77.87-9.94-89.18-28.39-97.66c-13.46-6.22 20.08-35.11 39.08-50.22" stroke-dasharray="6.92" stroke-width=".58"/><path d="m702 141c3.69-3.12 6-5 6-5" stroke-width=".58"/><path d="m708 118 5 34m-22-19h33" stroke-width="2.31"/></g><circle cx="658.5" cy="469.5" fill="#fff" r="6.5"/><circle cx="592.5" cy="374.5" fill="#fff" r="6.5"/><path d="m305 359.83 40.79-84.83 94.21 54.52-64.84 132.48-50.58-27.87z" fill="#acace3"/><path d="m314 350.6 34-65.6 77 44.67-58.33 116.33-39.67-30.2z" fill="#fff"/><path d="m311.17 560.26 26.83 166-26.83 165.74 15.12 11.78-24.83-1.06 2.16-171.34-46.34-120.69 5.61 125.31-27 161.56 11.76 6.44-26.95-1.06 11.55-167.53-21-100.18s-18.54-72.81 0-84.67 99.93 9.7 99.93 9.7z" fill="#3e3e54"/><path d="m212.24 312s65.24 7.31 81.38 19.1 32.87 30.5 32.87 45.6 6.51 89.51 6.51 89.51l26.94-62.54 15.06 8.61s-17.24 108.41-26.94 111.64-36.06-3.92-36.06-3.92l-1.65 41s-88.37 8.61-100.19-9.71-39.79-209.29 2.08-239.29z" fill="#acace3"/><path d="m269.19 294.15c-2.29 6.35-5.79 19-2.44 29.85 0 0-27.11-3.71-27.91-6.93s3.05-29.52.61-39.42c-9.1-7.9-16.32-16.54-17.62-20.89-2.74-9.19-10.34-30 20.73-43.48 10.93-4.53 40.83-11.32 51.89 33.65s-5.76 47.15-23.16 47.33a17.69 17.69 0 0 1 -2.11-.11z" fill="url(#i)"/><path d="m362.45 384.35a10.41 10.41 0 0 1 .4-3.14c.92-2.86 4-4.43 5.67-7a14.13 14.13 0 0 0 1.6-5.25 12.57 12.57 0 0 1 1.32-4.67 4.28 4.28 0 0 1 4-2.31c2.23.31 3.39 2.74 4 4.86a59.25 59.25 0 0 1 -1.6 39.21c-.72 1.84-2 3.92-4 3.92a4.84 4.84 0 0 1 -1.92-.67c-4-2.12-9.66-3.92-9.86-8.51-.2-5.61.28-11.1.4-16.47z" fill="url(#j)"/><path d="m371 371.14-18.38-18.14-1.62 3.4 16.83 18.6s3.43-1.25 3.17-3.86z" fill="#acace3"/><path d="m312.36 518s-9.66-3.92-12.94-31.37-7.42-55.63-7.42-55.63v129h22z" fill="url(#k)"/><path d="m275.59 203.44a21.2 21.2 0 0 0 -10.08-11.09 11.91 11.91 0 0 0 -11.33-.61 11.6 11.6 0 0 0 -9.32-4.58 15.6 15.6 0 0 0 -8.92 1.35 7.16 7.16 0 0 0 -3.79 7.68 48 48 0 0 0 -13.38 0 10.06 10.06 0 0 0 -3.93 1.22 9.43 9.43 0 0 0 -3.12 4.37 43.84 43.84 0 0 0 -3.79 17.46 18.1 18.1 0 0 0 -1.43 28.86 20.82 20.82 0 0 0 2.41 17.07 15.09 15.09 0 0 0 15.75 6.29c0 2.62.36 5.81 2.81 7a6.28 6.28 0 0 0 2.72.44 20.91 20.91 0 0 0 7.63-1.57 13.51 13.51 0 0 0 0 6.11 4.79 4.79 0 0 0 4.46 3.58 7.17 7.17 0 0 0 3.93-2.23 19.91 19.91 0 0 0 6.51-8.47 83.08 83.08 0 0 0 .8-9.47c.71-3.71 3.12-7.33 2.14-11s-4.06-5.24-6.42-7.64-3.79-6.68-1.2-8.73 6.38-.22 8.7 2.05c1.16 1.09 2.81 2.36 4.15 1.53s.94-2.58.45-3.89a54 54 0 0 1 -3.08-8.73 9 9 0 0 1 2.5-8.73c3.84-3.19 10-1.4 13.79-4.37s2.45-10.1 1.04-13.9z" fill="#3e3e54"/></svg>