<svg height="26" viewBox="0 0 25 26" width="25" xmlns="http://www.w3.org/2000/svg"><g fill="none"><path d="m24.9880859 13.243229c0-1.0652061-.0850586-1.8425267-.2691406-2.6486259h-11.9699219v4.8078167h7.0260743c-.1416016 1.1948092-.906543 2.994168-2.6064454 4.2032672l-.0238281.1609619 3.784668 2.9793816.262207.0265955c2.4081055-2.2600153 3.7963867-5.5852367 3.7963867-9.529397" fill="#4285f4"/><path d="m12.7490234 25.910687c3.4421875 0 6.3319336-1.1516412 8.4426758-3.138061l-4.0230469-3.166939c-1.0765625.7629313-2.5214843 1.2955344-4.4196289 1.2955344-3.37138668 0-6.23281246-2.2599161-7.25283199-5.3835878l-.14951172.0129008-3.93535156 3.0948931-.05146485.1453817c2.09648438 4.2320458 6.40283203 7.1398778 11.38916012 7.1398778" fill="#34a853"/><path d="m5.49619141 15.5176336c-.26914063-.8060992-.42490235-1.669855-.42490235-2.5622901 0-.8925343.15576172-1.7561908.41074219-2.5622901l-.00712891-.1716794-3.98466796-3.14461064-.1303711.06301527c-.8640625 1.75619084-1.35986328 3.72832057-1.35986328 5.81556487s.49580078 4.0592748 1.35986328 5.8154657z" fill="#fbbc05"/><path d="m12.7490234 5.00936641c2.3939453 0 4.0087891 1.0508168 4.9295899 1.92896183l3.5980469-3.56993893c-2.2097657-2.08724427-5.0854493-3.36838931-8.5276368-3.36838931-4.98632809 0-9.29267574 2.90773282-11.38916012 7.13977863l4.12216797 3.25327477c1.03417969-3.12367172 3.89560547-5.38368699 7.26699215-5.38368699" fill="#eb4335"/></g></svg>