<svg width="18" height="18" viewBox="0 0 18 18" fill="none" xmlns="http://www.w3.org/2000/svg">
<path fill-rule="evenodd" clip-rule="evenodd" d="M15 0H3V6H15V0ZM13.5 1.5H4.5V4.5H13.5V1.5Z" fill="black"/>
<path fill-rule="evenodd" clip-rule="evenodd" d="M15 11H3V18H15V11ZM13.5 12.5H4.5V16.5H13.5V12.5Z" fill="black"/>
<path d="M3 4C1.34315 4 0 5.34315 0 7V11C0 12.6569 1.34315 14 3 14V12.5C2.17157 12.5 1.5 11.8284 1.5 11V7C1.5 6.17157 2.17157 5.5 3 5.5V4Z" fill="black"/>
<path d="M15 4V5.5C15.8284 5.5 16.5 6.17157 16.5 7V11C16.5 11.8284 15.8284 12.5 15 12.5V14C16.6569 14 18 12.6569 18 11V7C18 5.34315 16.6569 4 15 4Z" fill="black"/>
<path d="M13 7H15V9H13V7Z" fill="black"/>
</svg>
