<svg width="18" height="17" viewBox="0 0 18 17" fill="none" xmlns="http://www.w3.org/2000/svg">
<path d="M17.8093 5.33371L12.6664 0.190897C12.5391 0.063644 12.3885 0 12.2144 0C12.0403 0 11.8895 0.063644 11.7624 0.190897C11.6351 0.31822 11.5714 0.468904 11.5714 0.642984V3.21439H9.32144C4.5467 3.21439 1.61717 4.56376 0.532196 7.26242C0.177387 8.15963 0 9.27472 0 10.6073C0 11.7188 0.425243 13.2288 1.27566 15.1374C1.29571 15.1844 1.33075 15.2645 1.38106 15.3784C1.43134 15.4921 1.47648 15.5925 1.51666 15.6797C1.55697 15.7666 1.60053 15.8403 1.64736 15.9005C1.72764 16.0144 1.82144 16.0714 1.9286 16.0714C2.02904 16.0714 2.10775 16.038 2.16471 15.971C2.22152 15.9041 2.24999 15.8203 2.24999 15.7201C2.24999 15.6597 2.24161 15.5711 2.22483 15.4538C2.20809 15.3366 2.19968 15.2581 2.19968 15.2178C2.16615 14.7626 2.1494 14.3505 2.1494 13.9824C2.1494 13.3061 2.20809 12.7001 2.32517 12.1644C2.44243 11.6286 2.6048 11.165 2.81244 10.7732C3.02005 10.3813 3.28782 10.0434 3.61603 9.75875C3.9441 9.47413 4.29729 9.24151 4.67564 9.06067C5.05405 8.8798 5.49935 8.73749 6.01163 8.63374C6.52388 8.52995 7.03947 8.45793 7.55851 8.41772C8.07755 8.37751 8.66516 8.35753 9.32144 8.35753H11.5714V10.929C11.5714 11.1031 11.635 11.2538 11.7621 11.381C11.8895 11.5081 12.0401 11.5718 12.2141 11.5718C12.3882 11.5718 12.5389 11.5081 12.6664 11.381L17.8092 6.23799C17.9364 6.11074 18 5.96013 18 5.78601C18 5.61193 17.9364 5.46121 17.8093 5.33371Z" fill="black"/>
</svg>
