<svg height="24" viewBox="0 0 24 24" width="24" xmlns="http://www.w3.org/2000/svg">
  <g fill="none" fill-rule="evenodd">
    <path d="m0 0h24v24h-24z" fill="#d8d8d8"/>
    <path
      d="m3 10h18v13h-18zm2 2v9h14v-9zm6-6h2v17h-2zm-9 0h20v6h-20zm2 2v2h16v-2zm5.5 0c-1.93299662 0-3.5-1.56700338-3.5-3.5s1.56700338-3.5 3.5-3.5c1.9329966 0 3.5 1.56700338 3.5 3.5v3.5zm1.5-2v-1.5c0-.82842712-.6715729-1.5-1.5-1.5-.82842712 0-1.5.67157288-1.5 1.5s.67157288 1.5 1.5 1.5zm3.5 2h-3.5v-3.5c0-1.93299662 1.5670034-3.5 3.5-3.5s3.5 1.56700338 3.5 3.5-1.5670034 3.5-3.5 3.5zm0-2c.8284271 0 1.5-.67157288 1.5-1.5s-.6715729-1.5-1.5-1.5-1.5.67157288-1.5 1.5v1.5z"
      fill="#3e3e4b" fill-rule="nonzero"/>
  </g>
</svg>
