<svg height="24" viewBox="0 0 24 24" width="24" xmlns="http://www.w3.org/2000/svg">
  <g fill="none" fill-rule="evenodd">
    <path d="m0 0h24v24h-24z" fill="#d8d8d8"/>
    <path
      d="m16.2706667 20.924185c-1.2706835.686266-2.7251831 1.075815-4.2706667 1.075815s-2.99998319-.389549-4.27066673-1.075815c.49089895-.4583841.86626839-1.0389242 1.07766785-1.69318.95736507.4915767 2.04278468.768995 3.19299888.768995s2.2356338-.2774183 3.1929989-.768995c.2113994.6542558.5867689 1.2347959 1.0776678 1.69318zm4.6100684-6.4553542c-.5606254-.2992183-1.2008727-.4688308-1.8807351-.4688308-.0237078 0-.0473674.0002063-.0709771.0006171.0467747-.3267995.0709771-.6608819.0709771-1.0006171 0-2.5907233-1.4074074-4.85272908-3.4993583-6.06315336.3181834-.57385555.4993583-1.23419326.4993583-1.93684664 0-.02161895-.0001715-.04319784-.0005132-.06473539 2.963715 1.47260456 5.0005132 4.53081012 5.0005132 8.06473539 0 .5001896-.040804.9908489-.1192649 1.4688308zm-17.76147024 0c-.07846088-.4779819-.11926486-.9686412-.11926486-1.4688308 0-3.53392527 2.03679818-6.59213083 5.00051324-8.06473539-.00034173.02153755-.00051324.04311644-.00051324.06473539 0 .70265338.18117492 1.36299109.49935826 1.93684664-2.09195089 1.21042428-3.49935826 3.47243006-3.49935826 6.06315336 0 .3397352.02420242.6738176.07097715 1.0006171-.02360975-.0004108-.04726936-.0006171-.07097715-.0006171-.67986239 0-1.32010967.1696125-1.88073514.4688308zm8.88073514-5.4688308c-2.209139 0-4-1.790861-4-4s1.790861-4 4-4 4 1.790861 4 4-1.790861 4-4 4zm0-2c1.1045695 0 2-.8954305 2-2s-.8954305-2-2-2-2 .8954305-2 2 .8954305 2 2 2zm-7 15c-2.209139 0-4-1.790861-4-4s1.790861-4 4-4 4 1.790861 4 4-1.790861 4-4 4zm0-2c1.1045695 0 2-.8954305 2-2s-.8954305-2-2-2-2 .8954305-2 2 .8954305 2 2 2zm14 2c-2.209139 0-4-1.790861-4-4s1.790861-4 4-4 4 1.790861 4 4-1.790861 4-4 4zm0-2c1.1045695 0 2-.8954305 2-2s-.8954305-2-2-2-2 .8954305-2 2 .8954305 2 2 2z"
      fill="#979797" fill-rule="nonzero"/>
  </g>
</svg>
