<svg height="24" viewBox="0 0 24 24" width="24" xmlns="http://www.w3.org/2000/svg">
  <g fill="none" fill-rule="evenodd">
    <path d="m0 0h24v24h-24z" fill="#d8d8d8"/>
    <g fill="#979797" fill-rule="nonzero">
      <path
        d="m11 4c-4.418278 0-8 3.581722-8 8s3.581722 8 8 8c1.8599087 0 3.611764-.6377563 5.0071292-1.7592681l-8.34050811-6.3235289 8.32151941-6.17314688c-1.3922827-1.11209233-3.1366844-1.74405612-4.9881405-1.74405612zm0 7.9346344 8 6.0653656c-1.8096004 2.4212674-4.7204338 4-8 4-5.5228475 0-10-4.4771525-10-10s4.4771525-10 10-10c3.2773277 0 6.1864259 1.57657824 8.010245 4.01268531z"/>
      <path
        d="m21 11.9346344c0-1.0290749-.2113278-2.04158319-.6093971-2.99233627l-4.057224 3.00976757 4.0714061 3.0868209c.3896956-.9583354.595215-2.0091576.595215-3.1042522zm0 6.0653656-8-6.0653656 8-5.9346344c1.225903 1.65998138 2 3.71267879 2 5.9346344 0 2.2745743-.720893 4.3852425-2 6.0653656z"/>
    </g>
  </g>
</svg>
