<svg height="40" viewBox="0 0 76 40" width="76" xmlns="http://www.w3.org/2000/svg" xmlns:xlink="http://www.w3.org/1999/xlink"><mask id="a" fill="#fff"><path d="m0 .00040067v39.66525923h75.4714717v-39.66525923z" fill="#fff" fill-rule="evenodd"/></mask><path d="m32.5243019 23.0055849c-1.3486793-2.7969811-3.2520755-4.0226415-4.325283-4.4075472 2.2475471-.9984905 3.4264151-2.3554717 4.325283-5.0573585zm26.9245283-22.12830188-5.4498113 22.17886788-5.469434-22.17886788h-16.034717v8.19169811c-1.9245283-7.16830188-8.7162264-8.96679245-15.0113207-9.06641509-7.66792456-.09962264-15.71018871 3.22188679-16.00528305 13.36301886h10.61056605c0-3.0611321 2.3471698-4.81207547 4.994717-4.77132075 3.2475471-.02490566 4.7464151 1.36150943 4.821132 3.52226415-.1132075 1.8732075-1.2203773 3.1781132-4.7962264 3.1781132h-3.5683019v7.3615094h3.2415095c1.834717 0 4.3992453.9984906 4.4996226 3.6211321.1237736 3.1222642-2.0490566 4.4966038-4.7215094 4.5215095-4.7713208-.1750944-5.5449057-3.8430189-5.5449057-6.9932076h-11.01509432c.05056604 2.1230189-.47471698 15.9592453 16.78566042 15.8588679 8.2664151.0754717 14.0354717-3.3962264 15.7335849-8.1916981v7.3433962h10.8656603v-23.9275471l5.8686793 23.9275471h9.4913207l5.8950944-23.9026415v23.9275472h10.8316981v-37.96377358z" fill="#232a32" fill-rule="evenodd" mask="url(#a)" opacity=".3"/></svg>