<svg height="50" viewBox="0 0 102 50" width="102" xmlns="http://www.w3.org/2000/svg" xmlns:xlink="http://www.w3.org/1999/xlink"><mask id="a" fill="#fff"><path d="m19.53125 23.4707303v-23.0176053h-18.88429687v23.0176053z" fill="#fff" fill-rule="evenodd"/></mask><mask id="b" fill="#fff"><path d="m20.7356005.30390625h-20.12522123v15.71647175h20.12522123z" fill="#fff" fill-rule="evenodd"/></mask><g fill="#232a32" fill-rule="evenodd" opacity=".3"><path d="m1.334375 38.7521875c0 1.3375-1.17265625 2.0328125-1.17265625 2.0328125h6.46796875c-.221875 0-1.4546875-1.1359375-1.4546875-2.0898438v-9.1757812h5.353125s1.6195313.2265625 1.6195313.9546875v-3.3578125h-6.9726563v-6.6414063h6.8023438c.3921875 0 1.7859375.6546875 1.8421875 1.4382813.0601562.7953125 0-3.7953125 0-3.7953125h-13.8195313s1.271875.7851562 1.334375 2.071875c.05859375 1.2859375 0 17.2234375 0 18.5625"/><path d="m35.7726562 18.118125c.2203125 0 1.4484375.9148437 1.3851563 2.0921875v22.046875c0 .5-.6601563 5.4164062-3.5703125 7.4359375-.0585938.0476562 3.0796875-.4515625 5.1875-2.571875.3375-.3328125 2.2820312-1.678125 2.2820312-6.3671875 0-5.0351563-.0484375-19.25-.0484375-20.5984375 0-1.5101563 1.5039063-2.0375 1.5039063-2.0375z"/><path d="m16.4474219 20.2032031c.0523437-1.1765625-1.0703125-2.0851562-1.2976563-2.0851562h6.75s-1.4226562.8460937-1.4226562 2.0296875c0 .7460937.0234375 11.9242187.0234375 13.8757812 0 1.9632813 1.1164062 4.7015625 4.3914062 4.7015625 2.5882813 0 3.74375-2.7492187 3.74375-4.7015625 0-1.6773437-.0398437-12.6023437-.0398437-13.7851562.0554687-1.1648438-1.0765625-2.1203125-1.296875-2.1203125h6.73125s-1.40625.7648437-1.40625 1.934375c0 .7484375-.0085938 14.109375-.0085938 14.109375s-.0359375 2.5382812-1.4820312 4.203125c-1.1148438 1.26875-2.9804688 2.7132812-6.175 2.76875-3.6632813.059375-5.3453125-1.2242188-6.959375-2.803125-1.1710938-1.1421875-1.4757813-3.4171875-1.5234375-4.3554688-.0390625-1.8492187-.028125-13.046875-.028125-13.771875"/><path d="m1.94929687 2.53828125c.0484375-1.1765625-1.07734374-2.08515625-1.30234374-2.08515625h6.75078124s-1.4265625.84609375-1.4265625 2.0296875c0 .74609375.028125 11.9242187.028125 13.8757812 0 1.9632813 1.11796875 4.7015625 4.39218753 4.7015625 2.5851562 0 3.7367187-2.7492187 3.7367187-4.7015625 0-1.6773437-.0328125-12.6023437-.0328125-13.7851562.0554688-1.16484375-1.0796875-2.1203125-1.3015625-2.1203125h6.7375s-1.4078125.76484375-1.4078125 1.934375c0 .7484375-.0132812 14.109375-.0132812 14.109375s-.03125 2.5382812-1.478125 4.203125c-1.1109375 1.26875-2.9796875 2.7132812-6.1765625 2.76875-3.66562503.059375-5.34140628-1.2242188-6.95625003-2.803125-1.1703125-1.1421875-1.47890625-3.4171875-1.52578125-4.3554688-.03671875-1.8492187-.02421875-13.04687495-.02421875-13.77187495" mask="url(#a)" transform="translate(82.03125 17.664922)"/><path d="m49.25 38.6911719c0 1.2351562 1.4414062 2.09375 1.4960937 2.09375h-6.7351562s1.3734375-.8585938 1.3734375-2.040625c0-.7398438.0117187-17.8101563.0117187-18.5335938.0632813-1.1773437-1.159375-2.0921875-1.38125-2.0921875h6.73125s-1.4960937.8632813-1.4960937 2.0335938z"/><path d="m57.4180469 20.58125c0 .7242187.0195312 17.5015625.0195312 18.2460937 0 1.1765625-1.4265625 1.9570313-1.4265625 1.9570313h6.725c-.0492187 0-1.3773437-.865625-1.3773437-2.0976563 0-.7265625.0664062-18.0515625.0664062-18.0515625.0023438-.1578125 2.5640625-.1226562 3.3007813-.103125.5171875.0085938 1.5625.309375 1.7460937 1.609375.0554688.3984375 1.384375-4.0234375 1.384375-4.0234375h-15.6640625l-1.3289062 4.421875s1.6140625-1.9585937 2.3265625-1.9585937c1.0210937.0101562 4.228125 0 4.228125 0"/><path d="m68.69125 40.7571875-1.2320313-4.2984375s1.9007813 2.2359375 5.2445313 2.4039062c3.3429687.1640625 4.3625-1.45 4.6914062-1.7914062.328125-.3359375 2.0898438-2.6273438-.6132812-4.3054688-2.91875-1.7921875-5.5359375-2.796875-6.703125-3.8015625-1.1648438-1.0101562-2.8367188-3.1921875-2.1671875-6.3242187.6710937-3.1226563 4.0648437-4.4679688 5.4492187-4.6867188 1.4203125-.2210937 5.1492188-.171875 6.6039063.3875.0945312.1703125 0 3.4648438 0 3.4648438-.0773438.21875-.5570313-1.615625-4.01875-1.678125-3.4648438-.0507813-4.021875 2.2960937-4.071875 2.4578125-.0609375.1703125-1.0070313 2.6351562 1.7140625 4.0304687 2.7367187 1.4 5.4304687 2.2703125 7.4171875 4.7570313 2.2851562 2.846875.2554687 6.5453125-.3664063 7.259375-.9351562 1.0664062-3.69375 2.690625-6.6515625 2.690625-4.003125-.003125-5.2375-.5023438-5.2960937-.565625"/><path d="m20.7313281 6.56851563c.1015625 2.6265625-1.596875 6.34999997-6.2492187 6.43281247-3.4445313.0484375-5.11484378-2.6398437-5.50859378-3.07812497-.38515625-.4484375-1.22734375-2.1203125-3.34296875-2.17578125-2.11796875-.0609375-3.06640625 1.8953125-3.11640625 2.90390622-.05625 1.015625.3828125 3.4648438 3.16171875 3.51875 2.56171875.0664063 3.80234375-2.678125 3.80234375-2.678125v2.8507813s-1.3453125 1.6164062-3.73125 1.6765625c-2.403125.0546875-5.24140625-1.9679688-5.13359374-5.48125.1140625-3.52109377 3.62187499-4.75625002 5.23671874-4.69765627 1.621875.0578125 3.01015625.8375 4.23671878 2.521875 1.2226562 1.67812497 2.8367187 3.02968747 5.1875 2.56953127 1.4265625-.2804688 3.5523437-1.40000002 3.5523437-4.47343752 0-3.07578125-3.1578125-4.20625-4.3929687-4.19375-.815625.0078125-1.8945313.2234375-3.1242188 1.39375-1.2226562 1.17734375-1.78281248 2.96328125-1.78281248 2.96328125v-3.7421875s1.89765628-2.51875 4.73359378-2.575c2.8421875-.0546875 6.3226562 2.2421875 6.4710937 6.2640625" mask="url(#b)" transform="translate(32.8125 .477422)"/></g></svg>