<svg height="50" viewBox="0 0 50 50" width="50" xmlns="http://www.w3.org/2000/svg"><g fill="#5c5c5c" fill-rule="evenodd" opacity=".35"><path d="m23.1844375 1.2694375c-2.93125.21-5.813125.99375-8.46375 2.2625-4.2625 2.05375-7.908125 5.3925-10.273125 9.49625-3.521875 5.92-4.20125 13.41-1.89375 19.88875 1.48125 4.214375 4.185625 7.974375 7.68125 10.748125 4.0625 3.221875 9.20125 5.07875 14.39125 5.123125 3.78875.08375 7.59625-.7775 10.97875-2.484375 4.310625-2.1325 7.931875-5.620625 10.246875-9.8325 2.313125-4.18375 3.328125-9.083125 2.81375-13.8375-.684375-7.715625-5.504375-14.865-12.306875-18.53-3.989375-2.198125-8.6325-3.204375-13.174375-2.834375m.00625-1.2c4.9325-.375 9.966875.776875 14.24875 3.25375 3.425 1.974375 6.385625 4.76 8.53 8.085625 2.6625 4.065625 4.070625 8.931875 4.029375 13.790625-.03125 5.0775-1.6475 10.138125-4.60125 14.2725-2.99625 4.241875-7.353125 7.508125-12.26875 9.18-4.365625 1.50875-9.15125 1.74625-13.65625.736875-4.724375-1.051875-9.113125-3.538125-12.470625-7.023125-3.5575-3.684375-5.96625-8.48125-6.70125-13.556875-.72375-4.520625-.125625-9.235625 1.640625-13.45375 1.63875-3.92375 4.308125-7.40125 7.650625-10.025625 3.8725-3.055625 8.675-4.918125 13.59875-5.26"/><path d="m19.5388125 11.9539375c-1.35375.73-2.28375 2.033125-2.965625 3.378125-.72375 1.3825-1.02375 2.92625-1.165 4.465-.6675-.089375-1.205625-.6075-1.35875-1.2575-.311875-.95.016875-1.925.1875-2.863125.075-.271875-.1325-.49375-.243125-.7175-.566875-.035-1.1475.245-1.40625.765625-.77375 1.44625-.705625 3.396875.364375 4.679375.61375.776875 1.58125 1.160625 2.54375 1.2625.325 1.00125.959375 1.97625 1.979375 2.37 1.248125.5025 2.61875-.024375 3.7025-.680625-.038125.4025-.06.815-.200625 1.19875-.38.30625-.844375.485625-1.270625.723125-2.091875 1.1025-4.224375 2.213125-5.9825 3.82-1.280625 1.2025-2.28875 2.8025-2.481875 4.574375-.094375 1.39375.460625 2.9225 1.680625 3.68875 1.275625.84375 2.9575.7975 4.346875.2725 1.75375-.668125 3.060625-2.154375 3.92375-3.77625 1.2775-2.296875 1.496875-4.975625 1.683125-7.54625.05125-.3-.0125-.725625.341875-.855625 2.0875-1.17375 4.11625-2.451875 6.05625-3.85875.229375.2825.456875.56625.6725.8575-.998125.595625-1.994375 1.236875-2.74875 2.139375-2.81875 3.083125-2.865625 8.37625.09 11.385625 1.51 1.594375 3.8325 2.275625 5.981875 1.9575 1.976875-.2825 3.775-1.525625 4.771875-3.2475 1.32875-2.194375 1.111875-5.2625-.616875-7.17625-1.616875-1.78625-4.7625-1.750625-6.34375.06125-1.243125 1.309375-1.28375 3.621875.013125 4.903125.52625.525 1.441875.841875 2.101875.39.42625-.306875.38625-.963125.043125-1.318125-.445-.535-.97-1.156875-.838125-1.90625.133125-.974375 1.223125-1.57125 2.140625-1.365.785625.121875 1.4125.73625 1.70375 1.455625.6875 1.635625.2975 3.664375-.936875 4.936875-1.3075 1.364375-3.58375 1.57875-5.1625.569375-1.401875-.863125-2.2-2.463125-2.445625-4.051875-.25875-1.91375.108125-3.979375 1.29625-5.539375.76375-.98875 1.83-1.8 3.0575-2.093125 1.030625.078125 2.099375.265 3.108125-.064375.475-.161875.936875-.69375.694375-1.213125-.260625-.53375-.903125-.69375-1.4375-.805625-.8-.158125-1.594375.054375-2.375625.204375-.545-.1875-.83375-.760625-1.035-1.264375 1.515-1.133125 3.014375-2.365 4.04375-3.976875.6-.968125.98875-2.1575.7075-3.295-.221875-.75375-.839375-1.394375-1.628125-1.53875-1.314375-.33-2.65875.333125-3.55125 1.274375-1.435625 1.5575-2.164375 3.71625-2.0975 5.823125-.019375.434375.149375.890625.025 1.309375-1.075.866875-2.278125 1.565625-3.436875 2.314375-.66625.38625-1.300625.8325-2.0075 1.145.0125-.670625.046875-1.350625.2375-1.996875.510625-.69625 1.15125-1.301875 1.555625-2.075625.29625-.533125.575625-1.209375.266875-1.79875-.283125-.43625-.908125-.394375-1.3175-.17625-.8725.438125-1.351875 1.363125-1.70375 2.229375-.24125.555-.268125 1.2425-.78625 1.635-.71875.629375-1.585 1.26-2.585 1.22375-.571875.003125-.9525-.534375-1.07375-1.03875 1.58125-.61375 2.9-1.75875 3.969375-3.0525.99-1.271875 1.776875-2.77375 1.909375-4.4025.075-.82-.21875-1.749375-.968125-2.178125-.93625-.510625-2.11-.36625-3.029375.1175m-.56125-8.4225c4.153125-1.160625 8.65-1.110625 12.76.215625.1775.055625.315625.1875.455625.305625-.678125-.050625-1.3-.356875-1.96625-.47125-1.68-.335625-3.42125-.501875-5.12375-.2475-1.06625.19125-2.18625.604375-2.8625 1.495-.51.661875-.56375 1.70125.02625 2.33.655625.6925 1.819375.655625 2.54625.095.85875-.63 1.69-1.38125 2.76125-1.615625 2.178125-.539375 4.46-.105 6.569375.52125 2.5325.69125 4.9275 1.940625 6.869375 3.7125 3.238125 2.860625 5.185 6.966875 5.92375 11.1775.643125 3.5925.450625 7.345625-.665625 10.826875-.039375.164375-.1425.25875-.311875.28375.64625-2.369375 1.12625-4.885.64375-7.3325-.254375-1.18125-.83625-2.51375-2.079375-2.9175-.951875-.33625-2.110625.316875-2.186875 1.351875-.181875 1.1075.723125 1.905625 1.285625 2.735 1.21125 1.7375 1.06125 3.990625.765 5.98375-.55625 2.69625-1.45625 5.38375-3.090625 7.6325-2.52375 3.621875-6.541875 6.011875-10.79 7.0325-3.69125.8825-7.60125.87625-11.286875-.033125-.484375-.145-1.03625-.208125-1.413125-.580625.703125-.001875 1.35375.30375 2.041875.413125 1.878125.34125 3.84.551875 5.716875.0825.85-.235 1.711875-.63875 2.24625-1.368125.495-.68.485625-1.72-.124375-2.32875-.526875-.555-1.404375-.66875-2.07875-.319375-.8.43375-1.4125 1.148125-2.229375 1.556875-1.64875.799375-3.56.681875-5.319375.386875-2.91625-.57375-5.798125-1.63125-8.1475-3.490625-3.12125-2.399375-5.283125-5.89875-6.34375-9.666875-1.12-3.944375-1.128125-8.183125-.105-12.149375.176875-.410625.108125-1.05875.576875-1.25375-.5975 2.266875-1.070625 4.64125-.7075 6.98875.185 1.043125.550625 2.14625 1.41375 2.824375.598125.49375 1.533125.675 2.194375.200625.70625-.4125.93875-1.39125.610625-2.115625-.34375-.815-1.044375-1.409375-1.444375-2.195-.865625-1.58125-.77-3.47-.540625-5.20125.48375-2.774375 1.425-5.515 3.060625-7.829375 2.429375-3.52 6.25375-5.93 10.35-7.035625"/><path d="m20.4439375 13.45875c.3675-.278125.973125-.159375 1.146875.288125.13375.553125-.069375 1.114375-.305 1.608125-.67 1.365625-1.66875 2.55-2.81 3.544375-.283125.258125-.6125.459375-.96125.613125.046875-1.214375.46375-2.385.980625-3.475.479375-.964375 1.03625-1.9575 1.94875-2.57875"/><path d="m32.25425 13.9333125c.325-.375.884375-.749375 1.379375-.49375.54375.32125.25875 1.041875.044375 1.48375-.7475 1.37875-1.85625 2.5425-3.05875 3.535-.0175-1.63625.568125-3.283125 1.635-4.525"/><path d="m16.0805625 29.804c1.409375-1.185 2.974375-2.20375 4.6475-2.978125-.176875 1.85125-.61 3.685625-1.31 5.408125-.6 1.38625-1.49 2.814375-2.96375 3.381875-.765625.2875-1.7625.46625-2.423125-.136875-.6275-.55625-.585-1.49875-.403125-2.245625.38125-1.39125 1.404375-2.4875 2.4525-3.429375"/></g></svg>