<svg height="50" viewBox="0 0 113 50" width="113" xmlns="http://www.w3.org/2000/svg"><g fill="#c7c7c7" fill-rule="evenodd"><path d="m0 49.5799477h85.938576v-49.5799477h-85.938576zm1.38157786-1.3896247h83.17425364v-46.80226105h-83.17425364z"/><path d="m59.0558118 16.9659255-.8794731 3.3912393s-6.4052484.0062168-6.7880182.0062168c-.1974327 0-.3219012.1049077-.396036.4009806l-.8911786 3.256802s-.1986033.4071974.3336067.4071974h6.6764258l-.8798632 3.24398h-6.6385781c-.3464827-.0128221-.4334936.0606133-.5076284.2828623l-1.2009841 4.5024841c-.0753054.2960729-.2208437.5940886.3601391.5940886h6.6143867l-.955949 3.475554-7.9601287-.0011656c-1.1073401 0-2.2322385-1.0642306-1.8658564-2.5877239 0 0 3.7285913-13.9484533 3.7321029-13.9636067.4132041-1.6113049 1.3878819-3.0089089 3.4515612-3.0089089z"/><path d="m20.6341537 20.3628376h-8.0256796c-.1716806-.0011657-.3230717.0691614-.3972066.3030667-.2356707.7436793-2.9134984 10.7950049-3.17062917 11.7422828-.1607555.5917573.09871637.6387715.37223483.6387715h3.61582834c.5696675 0 .7811469.0396318.8669872-.3182201.1186157-.4887923 1.1155339-4.200583 1.2388318-4.6497435.1115925-.4071974-.0152171-.4037005-.3464827-.4071974-.7351053-.0069938-1.8248871 0-1.8826342-.0023313-.1654377-.0058282-.14905-.1087932-.1115925-.2315741.1209569-.4021462.8552818-3.0718536.8552818-3.0718536l5.9315659-.0046625-2.563504 9.6993019c-.3593588 1.1473797-1.6594494 2.4630003-3.5912468 2.4630003-1.1428467 0-5.49963307.0081595-6.44972932-.0058282-1.03593656-.0151534-2.3196395-1.0385865-1.8861459-2.6172535.45339296-1.6536566 3.62168106-13.3671868 3.93890005-14.4920308.34648274-1.2324714 1.95637887-2.4431843 3.35635647-2.4392988l9.1533092-.0027199z"/><path d="m43.1188154 20.682573-.9419024 3.5353903c-.0987164.313169-.0152171.2770341-.3628704.2933531l-4.426239-.012822c-.3137073-.0174847-.4288114.0326379-.3464827-.3788335 0 0 .8584032-3.141015.9582901-3.4860448.0987163-.3450299.2688362-.2374023.6399005-.2467274.9727269-.0237014 4.2116382 0 4.2116382 0 .3297048 0 .3332165-.0493455.2676657.2956843m1.7238297-3.7117907s-5.6580475-.0058282-6.8453752.0011656c-1.1873277.0081595-2.6680732 1.0490773-3.0863496 2.3950045-.2290376.737851-4.654106 17.1722289-4.654106 17.1722289l3.4679488.0011656 3.036016-11.4092978 3.744979 11.3988071h3.4187857s-2.9501756-8.8211855-2.9279352-8.8211855c1.4409468.0244785 3.4808249-.2467274 4.0259109-1.8992183 0 0 1.4830866-5.4940564 1.7460702-6.4914569.3183895-1.2072159-.7101336-2.3518758-1.9259446-2.3472132"/><path d="m29.9237929 21.1102468-3.0215792 11.4617518c-.1162746.3461955-.178704.4817984-.7752942.4794671l-3.8987111-.0023313c-.4791451-.0326379-.3808189-.1962163-.280932-.5754383l3.1378538-11.6758411c.0823287-.3283224.1236881-.4301217.4744629-.4347843.3511649-.0046625 3.7816562-.0023313 4.1948602-.0023313.4135943-.0011656.2680559.3881586.1693396.7495074m1.5361515-4.1446322s-4.6400594-.0023313-5.6853604-.0023313c-1.7956233 0-3.4562433 1.0875435-3.9010522 2.8266804-.2586915 1.0067256-3.8027261 14.2087799-3.8027261 14.2087799-.3230718 1.1473797.4451991 2.5298304 1.9446734 2.5298304l6.5882444.0023313c1.5985808-.012045 2.9490051-1.1380546 3.2826118-2.3965587.3203404-1.2056618 3.8273076-14.3315608 3.8273076-14.3315608.2969295-1.3319396-.6059546-2.8371712-2.2536985-2.8371712"/><path d="m5.54303555 8.54206832h107.31366345l-60.3219421 35.69193918c6.3685713-8.9898149 13.826144-18.2224718 20.2204673-26.918545z"/></g></svg>