<svg height="50" viewBox="0 0 74 50" width="74" xmlns="http://www.w3.org/2000/svg"><g fill="#c7c7c7" fill-rule="evenodd"><path d="m57.34375 21.7708333c7.4652778.46875 8.5243056 9.6180556 8.5243056 13.5763889 0 10.4340278-3.6631945 13.6111111-8.5243056 13.6111111v1.0416667h.1388889.2951389c10.9375-.3472222 15.625-7.1180556 15.625-15.0868056 0-6.6840277-3.90625-14.2708333-16.0590278-14.2708333z"/><path d="m14.0625 50h-14.0625v-1.0416667c2.34375-.2256944 4.02777778-.4340277 4.02777778-3.1076389v-21.0069444c0-2.8645833-2.03125-2.9513889-4.02777778-3.0729167v-1.1284722h14.0104167v1.1284722c-1.6145834.1388889-2.9340278.6597223-2.9340278 3.0729167v20.9895833c0 2.34375 1.2673611 2.9340278 3.0034722 3.125z"/><path d="m55.7465278 50h-11.8055556v-1.0763889s.3298611.0173611.7986111-.0347222c1.0416667-.1215278 2.8472223-.1388889 2.8472223-2.1527778v-22.2743055l-.0347223.0520833-10.3819444 25.4861111h-1.1458333l-10.4513889-25.3993056v.1041667 20.1215278c0 3.0381944.1909722 3.9236111 3.7847222 4.1319444v1.0416667h-13.6805556v-1.0416667c3.3854167-.3125 3.9409723-.9895833 3.9409723-3.5069444v-20.6076389c0-2.2569444-.7986112-2.8472222-3.8888889-3.0729167v-1.1284722h14.3923611l6.4756944 15.2604167 6.1805556-15.2604167h12.96875v1.1284722c-2.4305556.1736111-2.2048611.5555556-2.2048611 4.2708334 0 0 0 21.0069444.0173611 21.0763889.0347222.3298611.0173611.3472222.0347222.5034722.1215278.7986111.5381944 1.1111111 2.1701389 1.3368055v1.0416667z"/><path d="m36.4583333 10.46875c-3.6805555 0-6.6666666 2.9861111-6.6666666 6.6666667 0 3.6805555 2.9861111 6.6666666 6.6666666 6.6666666 3.6805556 0 6.6666667-2.9861111 6.6666667-6.6666666 0-3.6805556-2.9861111-6.6666667-6.6666667-6.6666667zm0 12.8125c-3.3854166 0-6.1458333-2.7604167-6.1458333-6.1458333 0-3.3854167 2.7604167-6.1458334 6.1458333-6.1458334 3.3854167 0 6.1458334 2.7604167 6.1458334 6.1458334 0 3.3854166-2.7604167 6.1458333-6.1458334 6.1458333z"/><path d="m20.2604167 11.3715278c-.1215278.3645833-.5381945 1.6493055-.7638889 2.9340278-.2083334 1.1979166-.2256945 2.4131944-.2430556 2.7604166v.2604167h9.2708334v-.3298611c0-.2430556.0173611-.7291667.1041666-1.1979167.0868056-.5208333.2777778-1.0416667.3472222-1.2326389l.0868056-.2430555-8.7152778-3.1944445zm8.125 3.2465278c-.0868056.2777777-.2083334.6597222-.2777778 1.0763888-.0694445.4166667-.1041667.8159723-.1041667 1.09375h-8.2118055c.0173611-.5034722.0520833-1.4583333.2256944-2.4131944.1736111-1.0416667.4861111-2.0659722.6597222-2.5868056.3819445.15625 7.2569445 2.6736112 7.7083334 2.8298612z"/><path d="m52.4479167 11.1111111-8.7152778 3.1944445.0868055.2430555c.0694445.1909722.2430556.7118056.3472223 1.2326389.0868055.46875.1041666.9548611.1041666 1.1979167v.3298611h9.2708334v-.2604167c0-.3472222-.0347223-1.5625-.2430556-2.7604167-.2256944-1.2847222-.6423611-2.5694444-.7638889-2.9340277zm-.3298611.6770833c.1736111.5208334.4861111 1.5625.6597222 2.5868056.15625.9548611.2083333 1.9097222.2256944 2.4131944h-8.2118055c0-.2777777-.0347223-.6944444-.1041667-1.09375-.0694444-.3993055-.1909722-.7986111-.2777778-1.0763888.4340278-.1736112 7.3263889-2.6909723 7.7083334-2.8298612z"/><path d="m30.9895833 11.4409722.1909723-.1736111-6.4236112-6.68402777-.1909722.19097223c-.2777778.27777777-1.2152778 1.23263888-1.9618055 2.29166666-.7118056.98958334-1.2673611 2.06597222-1.4236111 2.37847222l-.1215278.24305556 8.3333333 4.0625.1215278-.2430556c.0868055-.1909722.3298611-.6597222.6423611-1.09375.2951389-.4513888.6770833-.8333333.8333333-.9722222zm-9.2361111-2.01388887c.2256945-.45138889.6944445-1.28472222 1.25-2.06597222.625-.85069444 1.3541667-1.64930555 1.7361111-2.03125.3472223.34722222 5.3645834 5.59027779 5.6944445 5.92013889-.2083334.2083333-.4861111.5034722-.7291667.8333333-.2430555.3298611-.4340278.6770834-.5729167.9375-.4166666-.1909722-6.9444444-3.38541663-7.3784722-3.59374997z"/><path d="m31.6145833 10.8506944.1041667-.0694444s.5555556-.4340278 1.1805556-.7291667c.46875-.22569441.9722222-.3645833 1.1631944-.41666663l.2604167-.06944445h.0173611l-2.4479167-8.92361111h-.0173611v-.03472222l-.2777778.08680555c-.3645833.10416667-1.6493055.52083334-2.8298611 1.07638889-1.09375.52083334-2.1006944 1.21527778-2.3784722 1.40625l-.2083333.15625 5.3819444 7.53472227zm-.1215277-9.56597218c.1388888.46875 2.0486111 7.48263889 2.1875 7.93402778-.2777778.08680556-.6597223.20833333-1.0416667.39930556-.3645833.17361111-.7118056.38194444-.9548611.55555554-.2777778-.38194443-4.4965278-6.30208332-4.7743056-6.68402777.4166667-.27777777 1.2152778-.79861111 2.0833334-1.21527777.9548611-.48611112 1.9791666-.83333334 2.5-.98958334z"/><path d="m35.2256944 9.35763889c.2083334-.03472222.7291667-.12152778 1.2673612-.12152778.5381944 0 1.0590277.08680556 1.2673611.13888889l.2604166.05208333 1.6666667-9.13194444-.2604167-.03472222c-.3819444-.05208334-1.71875-.26041667-3.0208333-.26041667-1.2152778 0-2.4131944.19097222-2.7604167.24305556l-.2604166.03472222 1.5798611 9.13194444zm1.1631945-8.83680556c1.0590278 0 2.1180555.13888889 2.6736111.20833334-.0868056.48611111-1.3888889 7.62152777-1.4756944 8.09027777-.2951389-.05208333-.6944445-.08680555-1.09375-.08680555-.4166667 0-.8159723.03472222-1.09375.08680555-.0868056-.46875-1.3194445-7.62152777-1.40625-8.09027777.4861111-.08680556 1.4409722-.20833334 2.3958333-.20833334z"/><path d="m38.8541667 9.61805556c.1909722.05208333.7118055.22569444 1.1805555.46875004.46875.2430555.9027778.5729166 1.0763889.6944444l.2083333.15625 5.625-7.37847222-.2083333-.15625c-.3125-.22569445-1.40625-1.00694445-2.5694444-1.59722222-1.0763889-.55555556-2.2395834-.9375-2.5694445-1.04166667l-.2430555-.08680556-.0694445.24305556-2.65625 8.61111111zm5.0520833-7.36111112c.9375.48611112 1.8402778 1.07638889 2.2916667 1.38888889-.2951389.38194445-4.6875 6.16319445-4.9826389 6.54513887-.2430556-.1736111-.5729167-.39930553-.9375-.59027776-.3645834-.19097222-.7465278-.32986111-1.0243056-.41666666.1388889-.45138889 2.2743056-7.39583334 2.4305556-7.84722222.46875.15625 1.3715278.48611111 2.2222222.92013888z"/><path d="m51.7534722 9.39236111c-.1736111-.34722222-.8159722-1.52777778-1.5798611-2.56944444-.7118055-.97222223-1.5798611-1.84027778-1.8229167-2.08333334l-.1909722-.19097222-.1736111.19097222-6.2326389 6.51041667.1909722.1736111c.15625.1388889.5381945.5208333.8506945.9375.3125.4340278.5555555.9027778.6423611 1.09375l.1215278.2430556 8.3333333-4.07986114zm-7.96875 3.62847219c-.1388889-.2604166-.3298611-.6076389-.5729166-.9375-.2430556-.3298611-.5208334-.625-.7291667-.8333333.3298611-.3472222 5.3472222-5.59027778 5.6770833-5.9375.3472222.34722222 1.0069445 1.05902778 1.5798611 1.82291667.625.85069444 1.1631945 1.78819444 1.4236111 2.27430555-.4340277.20833334-6.9618055 3.40277778-7.3784722 3.61111108z"/></g></svg>