<svg height="50" viewBox="0 0 75 50" width="75" xmlns="http://www.w3.org/2000/svg" xmlns:xlink="http://www.w3.org/1999/xlink"><mask id="a" fill="#fff"><path d="m0 49.6889189h74.3243243v-49.01351349h-74.3243243z" fill="#fff" fill-rule="evenodd"/></mask><g fill="#232a32" fill-rule="evenodd" opacity=".3" transform="translate(.514706)"><path d="m73.9945946 14.2333784c-3.4831081-17.00810813-36.5060811-18.08648651-57.7945946-5.1283784v1.4317568c21.2635135-10.9317568 51.4236486-10.86554058 54.1695946 4.8013513.9216216 5.1831081-1.997973 10.5824324-7.2141892 13.6912162v4.0662162c6.2743243-2.302027 12.7108108-9.7445946 10.8391892-18.8621621m-38.6891892 29.7702702c-14.6864865 1.3547298-29.99324324-.779054-32.13918918-12.2574324-1.04864865-5.6581081 1.53175675-11.6574324 4.95135135-15.3871621v-1.9912163c-6.15878379 5.4027027-9.49797298 12.2378379-7.57432433 20.3121622 2.45608108 10.3560811 15.59054056 16.2209459 35.64391896 14.2736486 7.9371621-.7689189 18.3182432-3.3216216 25.5398648-7.2885135v-5.6304054c-6.554054 3.9047298-17.3932432 7.1304054-26.4216216 7.9689189" transform="translate(0 .364595)"/><path d="m60.5391892 12.1209459h-3.8506757v17.1506757c0 2.0101352.9716216 3.7574325 3.8506757 4.0371622z"/><path d="m14.6882432 18.3831081h-3.8581081l-.002027 11.2047297c0 2.0175676.975 3.7635136 3.8601351 4.0378379z"/><path d="m10.8304054 16.292973h3.8445946v-3.65h-3.8445946z" mask="url(#a)"/><path d="m37.7489865 33.4472973c-3.1162162 0-4.4364865-2.1655405-4.4364865-4.3v-14.8777027h3.8182432v4.1135135h2.875v3.0837838h-2.875v7.4452703c0 .8695946.4128379 1.354054 1.3195946 1.354054h1.5554054v3.1810811z" mask="url(#a)"/><path d="m47.8761486 21.2837838c-1.3067567 0-2.3108108.6743243-2.7351351 1.5817567-.2493243.5452703-.3391892.9702703-.3682432 1.6412163h5.8837838c-.0743244-1.6412163-.818919-3.222973-2.7804055-3.222973m-3.1033783 5.8256757c0 1.9527027 1.2222973 3.3878378 3.3831081 3.3878378 1.6945946 0 2.5283784-.4689189 3.5060811-1.4351351l2.3594594 2.2479729c-1.5114865 1.4932433-3.0966216 2.4020271-5.8932432 2.4020271-3.6527027 0-7.1533784-1.993919-7.1533784-7.8060811 0-4.9695946 3.0587838-7.7783784 7.0682432-7.7783784 4.0770271 0 6.4202703 3.2878378 6.4202703 7.6054054v1.3763514z" mask="url(#a)"/><path d="m25.0562838 21.4666216c1.1189189 0 1.5831081.5527027 1.5831081 1.45v10.5540541h3.8182432v-10.575c0-2.1432433-1.1412162-4.5087838-4.4932432-4.5087838l-7.8871622-.0040541v15.0878379h3.8189189v-12.0040541z" mask="url(#a)"/><path d="m64.9910811 13.2589189c0-.1851351-.1162162-.2425675-.3621622-.2425675h-.177027-.0662162v.5243243c.0385135 0 .2114865.0081081.2432432.0081081.245946 0 .3621622-.0824324.3621622-.2574324zm.3709459 1.3128379h-.2864865c-.0263513 0-.0479729-.0162163-.0587837-.0385136l-.3878379-.6581081c-.0108108-.0141892-.0439189-.0297297-.054054-.0297297h-.1121622-.0648649v.6554054c0 .0324324-.0222973.070946-.0648648.070946h-.2581081c-.0385135 0-.0641892-.0385136-.0641892-.070946v-1.6547297c0-.0966216.0324324-.1358108.1168919-.1486487.0925675-.0101351.3351351-.0222973.4695946-.0222973.4783783 0 .7587837.1405406.7587837.5837838v.0324325c0 .2736486-.1351351.4229729-.3452702.4891891l.404054.6864865c.0054054.0094595.0094595.0337838.0094595.0486487 0 .0256757-.0148649.0560811-.0621622.0560811zm-.6804054-2.195946c-.6986486 0-1.2614865.5790541-1.2614865 1.277027 0 .7033784.5628379 1.2716217 1.2614865 1.2716217.7 0 1.2797298-.5682433 1.2797298-1.2716217 0-.6979729-.5797298-1.277027-1.2797298-1.277027zm0 2.8094595c-.8486486 0-1.5263513-.6844595-1.5263513-1.5324325 0-.8439189.6777027-1.5317567 1.5263513-1.5317567.845946 0 1.5385135.6878378 1.5385135 1.5317567 0 .847973-.6925675 1.5324325-1.5385135 1.5324325z" mask="url(#a)"/></g></svg>