<svg height="156" viewBox="0 0 200 156" width="200" xmlns="http://www.w3.org/2000/svg"><g fill="none"><path d="m33.7988838 8.908639c0 2.8843448 1.8901496 5.2539086 4.9788348 5.2539086 2.9511484 0 4.9434683-2.2673936 4.9434683-5.2539086s-1.9923199-5.25390862-4.9434683-5.25390862c-3.0886852 0-4.9788348 2.36956387-4.9788348 5.25390862zm13.2860621 0v8.205057h-3.5680995v-1.9923199c-1.131732 1.477539-2.8489781 2.4049305-5.1831754 2.4049305-4.6015909 0-8.2089866-3.6073957-8.2089866-8.6176676 0-5.0142015 3.6073957-8.61766763 8.2089866-8.61766763 2.3341973 0 4.0514434.92739151 5.1831754 2.40493051v-1.99231988h3.5680995zm120.5766131 0c0 2.8843448 1.89015 5.2539086 4.978835 5.2539086 2.955078 0 4.943469-2.2673936 4.943469-5.2539086s-1.988391-5.25390862-4.943469-5.25390862c-3.088685 0-4.978835 2.36956387-4.978835 5.25390862zm13.289992 0v14.7950381h-3.572029v-8.582301c-1.131732 1.477539-2.848978 2.4049305-5.183175 2.4049305-4.601591 0-8.208987-3.6073957-8.208987-8.6176676 0-5.0142015 3.607396-8.61766763 8.208987-8.61766763 2.334197 0 4.051443.92739151 5.183175 2.40493051v-1.99231988h3.572029zm-89.5758017 5.4228825c2.2988306 0 3.7763696-1.4421724 4.1536136-3.9807101h-8.5154974c.3811736 2.3695639 1.8194164 3.9807101 4.3618838 3.9807101zm.0707332 3.1947851c-4.809861 0-8.17362-3.5012958-8.17362-8.6176676 0-5.218542 3.5012959-8.61766763 8.4133271-8.61766763 2.4717342 0 4.7351982.61695113 6.727518 2.29883063l-1.7486831 2.64463763c-1.3753687-1.09636538-3.1279815-1.71724613-4.7744944-1.71724613-2.2988306 0-4.3933207 1.06492838-4.9081016 4.02000638h12.1857671c.0353667.44404762.0707333.89202487.0707333 1.37143912-.0353666 5.1163718-3.1947851 8.6176676-7.7924464 8.6176676zm43.0844085-8.6176676c0 2.8843448 1.89015 5.2539086 4.978835 5.2539086 2.951148 0 4.943468-2.2673936 4.943468-5.2539086s-1.99232-5.25390862-4.943468-5.25390862c-3.088685 0-4.978835 2.36956387-4.978835 5.25390862zm13.286062 0v8.205057h-3.568099v-1.9923199c-1.135662 1.477539-2.848978 2.4049305-5.183176 2.4049305-4.601591 0-8.208986-3.6073957-8.208986-8.6176676 0-5.0142015 3.607395-8.61766763 8.208986-8.61766763 2.334198 0 4.047514.92739151 5.183176 2.40493051v-1.99231988h3.568099zm-33.437179 0c0-4.97883488 3.465929-8.61766763 8.755205-8.61766763 2.471734 0 4.118247.55014751 5.902296 1.95695325l-1.713316 2.88434475c-1.340002-.96275812-2.746808-1.477539-4.29508-1.477539-2.848978.03536663-4.943469 2.09449013-4.943469 5.25390863s2.094491 5.218542 4.943469 5.2539086c1.548272 0 2.955078-.5147809 4.29508-1.477539l1.713316 2.8843448c-1.784049 1.4068057-3.430562 1.9569532-5.902296 1.9569532-5.289276 0-8.755205-3.6388327-8.755205-8.6176676zm46.00412 8.6176676c-2.059124 0-3.399126-.9627581-4.326517-2.4049305v1.9923199h-3.536663v-16.410114h3.572029v9.19925213c0 2.71537087 1.167099 4.22434687 3.501296 4.22434687.723051 0 1.477539-.1021702 2.232027-.4126106l1.100295 3.363759c-.789854.3104404-1.819416.4479772-2.542467.4479772zm-95.6510022-1.7172461c-1.7172462 1.131732-4.0828804 1.7172461-6.6921514 1.7172461-4.1575433 0-6.8336179-1.9923198-6.8336179-5.2539086 0-2.67607462 1.9923199-4.32651712 5.6625896-4.841298l1.6858092-.23970712c1.9569532-.27507375 2.8804151-.78985463 2.8804151-1.71724613 0-1.26926887-1.3046355-1.99231987-3.741003-1.99231987-2.4717341 0-4.2557839.78985462-5.4582491 1.71724612l-1.6818795-2.77824487c1.9569532-1.44217238 4.4286873-2.12985676 7.104762-2.12985676 4.7391277 0 7.4859356 2.23202701 7.4859356 5.35607888 0 2.88434475-2.1612938 4.39332075-5.7333229 4.90810165l-1.6818795.2436367c-1.5443426.2043405-2.7821745.5108513-2.7821745 1.6111463 0 1.2024652 1.1670986 1.9215866 3.1240519 1.9215866 2.0944901 0 4.1221766-.7898546 5.1163717-1.4068057zm46.0394862 1.7172461c-2.059123 0-3.399125-.9627581-4.322587-2.4049305v1.9923199h-3.536663v-16.410114h3.5681v9.19925213c0 2.71537087 1.167098 4.22434687 3.501296 4.22434687.723051 0 1.477539-.1021702 2.232027-.4126106l1.100295 3.363759c-.789855.3104404-1.819417.4479772-2.542468.4479772zm-30.4506639-.4126106h-5.8354931v4.9788349h-3.6073957v-4.9788349h-3.3283924v-3.2615887h3.3283924v-7.48593567c0-3.80780663 1.477539-6.07520026 5.6979562-6.07520026 1.5482723 0 3.332322.47941426 4.464054 1.26926888l-1.0295617 3.05724825c-1.0649284-.61695112-2.232027-.9273915-3.1594185-.9273915-1.7840498 0-2.3656343 1.100295-2.3656343 2.74680788v7.41520242h5.8354931zm-53.3525186-16.410114v10.2995471c0 3.8785399-2.4717341 6.4878109-6.4563739 6.5231775-2.0944901.0353667-4.2557838-.6169511-5.7686895-2.9197113-1.131732 1.8194163-2.9157817 2.9197113-5.42288247 2.9197113-1.75261275 0-3.46592925-.5147808-4.80593138-2.4363675v2.0237569h-3.57202912v-16.410114h3.60346612v9.09708188c0 2.84897812 1.57970925 4.36188372 4.02000638 4.36188372 2.36956387 0 3.56809947-1.5443426 3.56809947-4.3265171v-9.1324485h3.6073958v9.09708188c0 2.84897812 1.6465129 4.36188372 4.0160767 4.36188372 2.4363675 0 3.6034662-1.5443426 3.6034662-4.3265171v-9.1324485z" fill="#bdbfc1" transform="matrix(1 0 0 -1 9.307 155.326)"/><path d="m127.078 110.187h-54.078v-97.187h54.078z" fill="#ccc"/><path d="m76.39191 61.8090716c0 19.7149287 9.2306891 37.2764228 23.6052574 48.5937424-10.5117469 8.275791-23.7781609 13.215329-38.195955 13.215329-34.1327228 0-61.8012124-27.672419-61.8012124-61.8090714 0-34.1366523 27.6684896-61.8090716 61.8012124-61.8090716 14.4177941 0 27.6842081 4.93953862 38.195955 13.2153289-14.3745683 11.31732-23.6052574 28.8788141-23.6052574 48.5937427" fill="#b7b7b7"/><path d="m200.001097 61.8090716c0-34.1366523-27.66849-61.8090716-61.801212-61.8090716-14.417794 0-27.684208 4.93953862-38.199885 13.2153289 14.378498 11.31732 23.609187 28.8788141 23.609187 48.5937427 0 19.7149287-9.230689 37.2764228-23.609187 48.5937424 10.515677 8.275791 23.782091 13.215329 38.199885 13.215329 34.132722 0 61.801212-27.672419 61.801212-61.8090714" fill="#e1e1e1"/></g></svg>