<svg viewBox="0 0 300 80" xmlns="http://www.w3.org/2000/svg"><g fill="#c7c7c6"><path d="m69 42.39c-.23.63-1.45-.17-2.85-.17-1 0-6.36 1.17-8 1.17-2.65 0-3.46-1.5-7.28-1.5-3.17-3.38-4.87-3.89-7.25-5.3l.11-.66c3.39.23 4 .43 7.77 1.82a8.18 8.18 0 0 1 1.5.25 9.67 9.67 0 0 0 2.09.83c3 .85 1.13.09 4.91.64a21.3 21.3 0 0 0 3.77.42c1.65 0 2.52-.11 3.49-1.79a8 8 0 0 0 1.44-3.26c.11-.42.32-.34.34 0 .39 5.25-.07 4.1-.16 5.54-.06 1 .27 1.45.07 2zm-12.17 14.74c-.49-1.21-1.09-3.44-1.61-5.09a9.28 9.28 0 0 1 -.6-3.62 7 7 0 0 0 -2.38-4.82c1.76 0 3.27 1.4 5.84 1.4a55.05 55.05 0 0 0 5.92-.9 24.48 24.48 0 0 1 -7.13 13zm1.6 3.33a8 8 0 0 0 3.56.22c.43 0 .43.18.13.32-4.78 2.19-3.87 1.37-5.25 1.79-.92.28-1.26.76-1.86.76s-.11-1.05-1.05-3.65c-.79-2.16-2.95-3.84-3.8-6.15-1.46-3.94 0-5.47-2.49-6.56a22.44 22.44 0 0 1 -4.32-2.41 5.29 5.29 0 0 0 0-.68c0-1.75-.16-4.79-.16-5.77 0 0 0-.08 0-.12 6.29 3.63 4.47 3 7.64 6.37a5.09 5.09 0 0 1 2.19 4.23 9.29 9.29 0 0 0 .6 3.62 53.79 53.79 0 0 0 1.88 5.57 3.94 3.94 0 0 0 2.93 2.47zm-18.55 3.46h-.61c.06-2.61.6-4.44.6-6.19 0-2.82 1.5-5.12 1.5-5.64 0-1.1 1-3.53 1.62-5.67a16.64 16.64 0 0 0 3.88 2.11c1.61.69.14 1.29 1.8 5.8.85 2.29 3 4 3.79 6.12a24.41 24.41 0 0 1 -12.58 3.47zm-1.77-19.38a5.33 5.33 0 0 1 -.11-1.93.41.41 0 0 1 .82.09 4.55 4.55 0 0 0 .12 1.58 6.49 6.49 0 0 0 1 2 1.81 1.81 0 0 0 1 .35 8.16 8.16 0 0 0 -.4-1.84c-.32-1.1-.47-1.6-.11-1.87a.51.51 0 0 1 .57 0 7.39 7.39 0 0 0 -1.22-1.56c-.32-.33-.42-.92-.38-2.19 0-.71.07-1.4.1-2s.08-1.32.08-1.82a8 8 0 0 0 -.14-1.88 10.22 10.22 0 0 1 -.17-2.36 16.87 16.87 0 0 0 -.13-2.4 4.26 4.26 0 0 1 0-.54 10.24 10.24 0 0 1 .13-1.54 9.28 9.28 0 0 0 .12-1.42c0-1.38-.24-1.55-1.23-2.23a.41.41 0 0 1 .46-.68 2.76 2.76 0 0 1 1.58 2.9 10.18 10.18 0 0 1 -.2 1.53 9.36 9.36 0 0 0 -.12 1.43 4 4 0 0 0 0 .43 17.23 17.23 0 0 1 .14 2.51 9.66 9.66 0 0 0 .16 2.2 8.68 8.68 0 0 1 .16 2c0 .52 0 1.15-.08 1.87s-.08 1.29-.1 2c0 1.26.09 1.53.15 1.59a7.81 7.81 0 0 1 1.72 2.47l.28.55a.41.41 0 0 1 -.57.54l-.62-.32.17.61c.38 1.3.59 2.13.29 2.59a.64.64 0 0 1 -.47.29 2.61 2.61 0 0 1 -1.77-.55 7.43 7.43 0 0 1 -1.22-2.36zm1-26.93c.15-.2.38-.17.59 0a5.46 5.46 0 0 0 2.3.91c.74 0 .6-.5.65-.79a5.9 5.9 0 0 0 .2-.72c0-.13-.06-.4 0-.51s.48 0 .44-.37a6.77 6.77 0 0 0 -.41-1.13 24.54 24.54 0 0 1 21.51 23.35 1.23 1.23 0 0 1 -.2 0 21.19 21.19 0 0 1 -3.77-.42c-3.78-.55-1.87.21-4.91-.64a10.22 10.22 0 0 1 -2.09-.8 7.84 7.84 0 0 0 -1.52-.25 21.1 21.1 0 0 0 -8-1.88c0-.66.06-1.45.06-2.43a29 29 0 0 0 -.39-3.86 18.29 18.29 0 0 0 -.37-2.66c-1-3.33-2.65-3.71-2.65-4.91 0-.52.17.13.33-1.52a8.1 8.1 0 0 1 -1.53-.79c-.2-.16-.32-.38-.18-.56zm-3.5 40.21a52.64 52.64 0 0 0 .9 5.88 24.55 24.55 0 0 1 -20.66-19.36 6.58 6.58 0 0 1 2.25-.78c1.22 0 2.7 2.23 6.36 2.23 4.42 0 7.39-1.65 8.78-1.65a34.74 34.74 0 0 0 3.68.39 22.53 22.53 0 0 0 -.15 2.35 22.29 22.29 0 0 0 .31 3.34c0 4.12-1.48 4.9-1.48 7.6zm-23.91-18c0-2.6 1.49-3.21 3.38-3.21.91 0 1-.47 1.46-.47s.08.43.72.47c.46 0 1.32-.07 1.32.58s-.24.8-.24 1c0 .47.65.54 1.2.54 1 0 .55.16 1.13.16 1.69 0 2.5-2.49 6.15-2.74l2.13-.15c1.47.78 2 .84 2.56 1.25 1.4 1 1.2 1.71 3.94 3.32.34 1.39 1.08 1.63 1.42 2.2a36.1 36.1 0 0 1 -3.63-.39c-1.39 0-4.36 1.65-8.78 1.65-3.85 0-4.26-2.23-6.36-2.23s-1.63 1-3.8 1c-1.66 0-2.6-1-2.6-3zm7.61-13.82c.81.38 1.78.43 2.26 1 1.19 1.49 0 3.79 5.07 7.55-2.12 0-3.19.81-5.91 2.63l-.46-.12c-.27-1.61-1.13-1.76-2.35-2.06a1.76 1.76 0 0 0 -2.12-.37 24.37 24.37 0 0 1 3.51-8.63zm.07-6.1c1.77-1.9 3.37-1.26 4.76 0 .67.62 1.08.37 1.39.66s-.23.37.21.83 1 .85.57 1.33a9.64 9.64 0 0 1 -2.19 1.15.54.54 0 0 0 -.29.7.55.55 0 0 0 .7.29 4.42 4.42 0 0 0 1.32-.57c.59.73.45 1.29 1.59 1.53 2.29.49 3.75.06 5.72 2a8.37 8.37 0 0 0 2.44 1.58 20.11 20.11 0 0 1 1.13 3.87v.84a8.5 8.5 0 0 1 -1.32-1.11l-.53-.53a6.85 6.85 0 0 0 -1.07-.72 8.32 8.32 0 0 1 -1.14-.75c-.16-.16-.35-.37-.57-.62-1-1.1-2.31-2.61-3.77-2.61a3.54 3.54 0 0 0 -1.7.38.8.8 0 0 0 .75 1.41 2 2 0 0 1 .95-.19c.74 0 1.89 1.29 2.58 2.07.24.27.45.5.63.69a8.32 8.32 0 0 0 1.44 1 7.72 7.72 0 0 1 .8.52l.48.48a9.83 9.83 0 0 0 2 1.63l.12.06c-.41 1-1 1.32-1.07 2.79-1.45-1.1-1.45-1.64-2.6-2.47-.57-.41-1.1-.47-2.57-1.25l-2.32-1.46c-5.25-3.86-3-5-5.07-7.55-1-1.25-1.88-.63-3.34-1.8s-1.26-2.8 0-4.16zm16.62-4.73a6 6 0 0 1 1 2.77c0 1.72-2.12 3.36-2.12 6.2a18.34 18.34 0 0 0 .26 3.08c-2.36-1.72-2.2-2.34-7.25-3l-.25-.44a1.73 1.73 0 0 0 .5-1.33 3.6 3.6 0 0 0 -.82-1.78c0-.23.08-.85-1-1.67a24.38 24.38 0 0 1 9.68-3.83zm34.76 22.75c0-1.27-.14-2.28-.16-2.89s-.35-2-1.76-2-1.69 1.33-1.84 1.97a3 3 0 0 1 -.62 1.41c-.14.21-.3.47-.47.73a26.14 26.14 0 0 0 -23.27-23.74 2.27 2.27 0 0 1 -.1-.42c0-.36-.56-2.11-3.43-2.11-2.1 0-3.14 1-3.32 2.71a26 26 0 0 0 -11.13 4.57h-.06a5.29 5.29 0 0 0 -2.85-1 5.21 5.21 0 0 0 -3.55 1.74c-1.42 1.45-2.4 3.9-.16 6.21a26 26 0 0 0 -3.93 10c-3.25.35-4.11 3-4.11 4.83 0 3.09 1.72 4.45 4.25 4.71a26.16 26.16 0 0 0 22.51 20.7v.31a22.56 22.56 0 0 1 -.41 2.53c0 .3.11.8.91.8.62 0 .78-.15 1.27-.15.85 0 1.39.29 2.56.29.46 0 2.48-.15 3.3-.19a.37.37 0 0 0 .11-.7c-.15-.07-1.08-.23-1.51-.38s-1.38-.85-2-1.15a2.93 2.93 0 0 1 -1.41-1.19h.25a26 26 0 0 0 13.11-3.51 10 10 0 0 0 .32 1.77 1.86 1.86 0 0 0 2.65 1.23c.64-.23 1.15-.6 1.56-.75a17.49 17.49 0 0 0 2.3-.53 28 28 0 0 0 2.76-1.17c.5-.24 1.78-.94 1.3-2.28s-1.69-1.19-2.38-1.12a6.61 6.61 0 0 1 -2.87-.22 1.78 1.78 0 0 1 -.85-.4 26.1 26.1 0 0 0 7.92-14.66h.48c1 0 1.66.43 2.38.43a2.18 2.18 0 0 0 2.11-2.38c0-.67-.16-1.09-.16-1.52a17.55 17.55 0 0 0 .31-2.42z"/><g fill-rule="evenodd"><path d="m79 50.18-.32 2.1h9.81l.3-2.1zm15.33 0 .55 2.1h7.72l.55-2.1zm14.37 0 .3 2.1h9.81l-.32-2.1zm12.21 0c2 1.69 5 2.68 9 2.68 7.08 0 10.15-2.07 10.15-2.07v-.61zm22.73 0a8.27 8.27 0 0 0 6.1 2.67 6.72 6.72 0 0 0 5.56-2.67zm14.75 0a9 9 0 0 0 6.54 2.76 19.22 19.22 0 0 0 9.29-2.37s1.55 2.23 5.9 2.23a21 21 0 0 0 6.34-1.09v-1.53zm30 0v2.17h9v-2.17zm19.74 0a16.79 16.79 0 0 0 18.27 0zm23.63 0v2.17h9v-2.17zm15 0a7.28 7.28 0 0 0 5.15 2.17h15.55v-2.17zm26.1 0c2.11 1.56 5.26 2.61 9.93 2.61 5.09 0 7.22-1.07 7.22-1.07v-1.54z"/><path d="m79.41 47.42-.41 2.76h9.79l.39-2.76zm14.17 0 .73 2.76h8.83l.73-2.76zm14.71 0 .39 2.76h9.79l-.47-2.76zm10.32 0a9.49 9.49 0 0 0 2.28 2.76h19.11v-2.76h-6.66c-.36 0-.74 0-1.13 0h-1zm23.25 0a9.57 9.57 0 0 0 1.76 2.76h11.66a8.68 8.68 0 0 0 1.41-2.76zm14.93 0a5.62 5.62 0 0 0 1.58 2.76h28.07v-2.76zm31.59 0v2.76h9v-2.76zm17.3 0a9.47 9.47 0 0 0 2.44 2.76h18.27a9.46 9.46 0 0 0 2.44-2.76zm26.07 0v2.76h9v-2.76zm13.3 0a6.77 6.77 0 0 0 1.69 2.76h20.7v-2.76zm25.28 0a9.37 9.37 0 0 0 2.52 2.76h17.15v-2.76z"/><path d="m89.16 47.42 1.54-10.91 2.88 10.91h10.29l2.88-10.91 1.54 10.91h9.71l-.34-2.17a11 11 0 0 0 .9 2.17h12.57c-4.22-.23-4.92-2-4.92-3.8h14.69a13.41 13.41 0 0 0 1 3.8h14.8c0-.17.07-.27.07-.27a1.86 1.86 0 0 0 0 .27h29.65v-1.16a11.46 11.46 0 0 1 -1.67.15 2.79 2.79 0 0 1 -3.11-2.95v-6.88h4.78v-5.74h-4.72v-8.35h-9.62v8.32h-3.72v5.77h3.72v7.2a3 3 0 0 1 -3.1 3 2.87 2.87 0 0 1 -2.92-3v-21.25h-9.5v11.2a8.09 8.09 0 0 0 -6.78-3.57c-1.71 0-7.95 1.05-8.88 9.25a1.08 1.08 0 0 1 0 .17.41.41 0 0 1 0-.17c-1.12-5.82-4.81-9.2-11.47-9.2-8.5 0-12.32 5.93-12.32 10.51v.75l-2.61-16.95h-12.22l-3.55 13.56-3.57-13.55h-12.16l-3.59 22.89zm50.83 0v-1.82a13.68 13.68 0 0 1 -6.66 1.82zm57.35 0v-3.61c0-.85 1.94-5.27 6.29-5.27a5.15 5.15 0 0 1 .91.13 11.8 11.8 0 0 0 -.23 2.35v.9a10.81 10.81 0 0 0 1.37 5.51h23.15a10.81 10.81 0 0 0 1.37-5.51v-.92c0-7.38-6.14-10.8-12.94-10.8-4.69 0-9.08 1.63-11.34 5.08v-4.28a5.65 5.65 0 0 0 -1.53-.15c-3.53 0-5.91 3.18-7 5.5v-5.51h-9v16.58zm43.37 0v-7.25c0-1.49.28-3.12 2-3.12s2.13 1.63 2.13 3.12v5.72a5.25 5.25 0 0 0 .24 1.53h22.4v-16.57h-9.4v15.23h-2.32a1.49 1.49 0 0 1 -1.44-1.56v-7.43a7 7 0 0 0 -7-6.81c-2.64 0-4.94 1.4-6.61 4.86v-4.3h-9v16.58zm49.28 0v-2.16a9 9 0 0 1 -4.49 1.18c-2.66 0-5.43-1.14-5.43-5.08a4.9 4.9 0 0 1 5.17-5 17.28 17.28 0 0 1 4.76 1.04v-6.1s-2.35-1-7.37-1c-11.92 0-13.83 6.63-13.83 11.08a11.84 11.84 0 0 0 1.53 6.06zm-31.94-18.82v-6.09h9.4v6.09zm-105.51 17.69c-1.36 0-3.09-.53-3.09-5s1.73-5 3.09-5 3.09.53 3.09 5-1.73 5-3.09 5zm-26.27-6.29c.34-3.29 2-4.2 3.35-4.2s3 .91 3.34 4.2zm90.84 6.26c-1.36 0-3.09-.53-3.09-5s1.73-5 3.09-5 3.09.53 3.09 5-1.73 5-3.09 5z"/></g></g></svg>