<svg height="40" viewBox="0 0 185 40" width="185" xmlns="http://www.w3.org/2000/svg" xmlns:xlink="http://www.w3.org/1999/xlink"><mask id="a" fill="#fff"><path d="m0 39.4222308h184.655385v-39.42230772h-184.655385z" fill="#fff" fill-rule="evenodd"/></mask><g fill="none" fill-rule="evenodd" opacity=".3"><path d="m72.7329231 13.3375385v18.176923h4.0638461v-23.62076919h-5.6246154l-7.1492307 17.54461539-6.9376923-17.54461539h-5.853077v23.62076919h3.8192308v-18.1784615h.1307692l7.3261539 18.1784615h2.8815385l7.2123076-18.176923zm9.9353846-5.96230773c-.6553846 0-1.2269231.22307692-1.6969231.66461538-.4715384.44384616-.7107692 1.0023077-.7107692 1.66076923 0 .64846152.2369231 1.19615382.7038461 1.62769232.4638462.4307692 1.0369231.6484615 1.7038462.6484615.6661538 0 1.2423077-.2176923 1.7115385-.6476923.4730769-.4323077.7123076-.98.7123076-1.62846152 0-.63538461-.2330769-1.18846153-.6930769-1.64230769-.4592307-.45307692-1.0415384-.68307692-1.7307692-.68307692zm-2.0323077 24.13923073h3.9823077v-16.9276923h-3.9823077zm15.8576923-17.3361538c-1.8269231 0-3.4561538.3923077-4.8423077 1.1638461-1.3884615.7738462-2.4630769 1.8792308-3.1938461 3.2846154-.7269231 1.4015385-1.0961539 3.0392308-1.0961539 4.8646154 0 1.5992308.3576923 3.0676923 1.0653846 4.3607692.7084616 1.2953847 1.7107693 2.3092308 2.98 3.0123077 1.2669231.7023077 2.7315385 1.0584616 4.353077 1.0584616 1.8923076 0 3.5076923-.3784616 4.8038458-1.1246154l.052308-.03v-3.6476923l-.167692.1223077c-.5869234.4269231-1.242308.7684615-1.9476926 1.0138461-.7038462.2461539-1.3461539.37-1.9084616.37-1.5623076 0-2.816923-.4892307-3.726923-1.4530769-.913077-.9646154-1.3753846-2.32-1.3753846-4.0253846 0-1.7161539.4823076-3.1061539 1.4330769-4.1323077.9484615-1.0223077 2.2046154-1.5407692 3.7353846-1.5407692 1.3084615 0 2.5838461.4430769 3.7907693 1.3184615l.166923.1207692v-3.8438461l-.053846-.03c-.454616-.2538462-1.0738463-.4638462-1.8423078-.6230769-.7653847-.1592308-1.5146154-.2392308-2.2261539-.2392308zm11.1130767 3.3392308v-2.9307693h-3.982307v16.9276923h3.982307v-8.6592307c0-1.473077.333846-2.6823077.992308-3.5961539.650769-.9023077 1.517692-1.36 2.575385-1.36.358461 0 .761538.0592308 1.197692.1761539.431538.1161538.743846.2423077.928461.3753846l.166923.1215384v-4.0146153l-.064615-.0276923c-.370769-.1576924-.895385-.2369231-1.558461-.2369231-1.00077 0-1.896154.3215384-2.663847.9538461-.673077.5569231-1.15923 1.32-1.531538 2.2707693zm15.09-3.3392308c-2.792307 0-5.009231.8184615-6.589231 2.4315385-1.58 1.6130769-2.381538 3.8461538-2.381538 6.636923 0 2.6507693.782308 4.7815385 2.324615 6.3353846 1.542308 1.5538462 3.64077 2.3407693 6.237693 2.3407693 2.705384 0 4.87923-.8292308 6.45923-2.4653846 1.579231-1.6338462 2.38077-3.8453847 2.38077-6.5707693 0-2.6915384-.751539-4.8392307-2.233846-6.3823077-1.483847-1.5438461-3.568462-2.3261538-6.197693-2.3261538zm-.18 14.4484615c-1.463077 0-2.616923-.4853846-3.429231-1.4407692-.818461-.9607692-1.232307-2.3292308-1.232307-4.07 0-1.7946154.414615-3.2 1.233077-4.1769231.812307-.9715384 1.954615-1.4638461 3.396154-1.4638461 1.396923 0 2.51.47 3.306923 1.3992307.801538.9338462 1.207692 2.3276923 1.207692 4.1438462 0 1.8384615-.382308 3.25-1.136154 4.1946154-.748461.9376923-1.873846 1.4138461-3.346154 1.4138461zm16.997693-14.4484615c-1.898462 0-3.469231.4861538-4.669231 1.4438461-1.206923.963077-1.819231 2.2261539-1.819231 3.7553847 0 .7946153.132308 1.5007692.392308 2.0992307.261538.6007693.666923 1.1292308 1.204615 1.5738462.533846.44 1.357692.9015384 2.45 1.37.918462.3784615 1.603077.6976923 2.037692.95.425385.2469231.726923.4946154.897693.7361538.165384.2369231.24923.56.24923.96 0 1.1369231-.851538 1.6907693-2.603846 1.6907693-.65 0-1.391538-.1361539-2.203846-.4038462-.813077-.2669231-1.572308-.6515385-2.256923-1.1438461l-.166923-.12v3.8807692l.061538.0284615c.57.2630769 1.289231.4853846 2.136924.66.846153.1753846 1.614615.2638462 2.282307.2638462 2.060769 0 3.72-.4876923 4.93-1.4515385 1.218462-.9692308 1.836154-2.2630769 1.836154-3.8446154 0-1.1415384-.332308-2.12-.987692-2.9092307-.650769-.7823077-1.78-1.5007693-3.355385-2.1361539-1.255384-.5038461-2.059231-.9223077-2.390769-1.2430769-.32-.31-.482308-.7484615-.482308-1.3038462 0-.4923077.200769-.886923.612308-1.2061538.414615-.3207692.991538-.4846154 1.715385-.4846154.671538 0 1.358461.1061539 2.042307.3146154.683077.2076923 1.282308.4861538 1.783077.8269231l.164616.1123077v-3.6815385l-.063077-.0269231c-.461539-.1984615-1.07077-.3676923-1.81077-.5053846-.736923-.1361538-1.405384-.2053846-1.986153-.2053846zm15.47 0c-2.791539 0-5.009231.8184615-6.589231 2.4315385-1.58 1.6130769-2.381539 3.8461538-2.381539 6.636923 0 2.65.782308 4.7815385 2.324616 6.3353846 1.542307 1.5538462 3.640769 2.3407693 6.237692 2.3407693 2.706154 0 4.878462-.8292308 6.459231-2.4653846 1.58-1.6338462 2.38-3.8453847 2.38-6.5707693 0-2.6915384-.750769-4.8392307-2.233077-6.3823077-1.483077-1.5438461-3.568462-2.3261538-6.197692-2.3261538zm-.18 14.4484615c-1.463077 0-2.616154-.4853846-3.429231-1.4407692-.817693-.9607692-1.232308-2.33-1.232308-4.07 0-1.7946154.414615-3.2 1.232308-4.1769231.813846-.9715384 1.956154-1.4638461 3.396923-1.4638461 1.397692 0 2.51.47 3.306923 1.3992307.801538.9338462 1.207692 2.3276923 1.207692 4.1438462 0 1.8384615-.382307 3.25-1.136154 4.1946154-.748461.9376923-1.873846 1.4138461-3.346153 1.4138461zm29.850769-10.7930769v-3.2469231h-4.032308v-5.04923074l-.136154.04230769-3.787692 1.15846155-.074615.0230769v3.8253846h-5.978462v-2.1307692c0-.9923077.222308-1.7523077.659231-2.2584615.434615-.50076927 1.055384-.75461542 1.847692-.75461542.569231 0 1.159231.13384615 1.752308.39846154l.148461.06692307v-3.42076923l-.06923-.02538461c-.553847-.19923077-1.306924-.29923077-2.24-.29923077-1.176154 0-2.245385.25615384-3.176924.76307692-.933076.50846154-1.666923 1.23307692-2.180769 2.15538462-.511538.92153848-.771538 1.98538458-.771538 3.16230768v2.3430769h-2.808462v3.2469231h2.808462v13.6807692h4.030769v-13.6807692h5.978462v8.6938462c0 3.5807692 1.68923 5.3953846 5.02 5.3953846.547692 0 1.123076-.0638462 1.711538-.19.598462-.1284616 1.006154-.2576923 1.246154-.3953846l.053077-.0307693v-3.2776923l-.163846.1084616c-.218462.1461538-.49077.2653846-.81077.3538461-.320769.09-.588461.1353846-.796153.1353846-.78 0-1.357693-.2107692-1.715385-.6253846-.362308-.4184615-.546154-1.1507692-.546154-2.1753846v-7.9923077z" fill="#232a32"/><path d="m0 18.7322308h18.7323077v-18.73230772h-18.7323077z" fill="#232a32" mask="url(#a)"/><path d="m20.6823077 18.7322308h18.7323077v-18.73230772h-18.7323077z" fill="#4b525a" mask="url(#a)"/><path d="m0 39.4222308h18.7315385v-18.7323077h-18.7315385z" fill="#373e46" mask="url(#a)"/><path d="m20.6823077 39.4222308h18.7323077v-18.7323077h-18.7323077z" fill="#60666f" mask="url(#a)"/></g></svg>