<svg height="49" viewBox="0 0 97 49" width="97" xmlns="http://www.w3.org/2000/svg" xmlns:xlink="http://www.w3.org/1999/xlink"><mask id="a" fill="#fff"><path d="m96.553773 48.2694593v-47.76143791h-48.2767751-48.27677508v47.76143791z" fill="#fff" fill-rule="evenodd"/></mask><mask id="b" fill="#fff"><path d="m.43270945 6.68449198h6.2745098v-6.19555853h-6.2745098z" fill="#fff" fill-rule="evenodd"/></mask><g fill="#232a32" fill-rule="evenodd" opacity=".3"><path d="m57.8596999 23.3622995c2.7918895 0 5.0141117-.927659 5.0141117-3.8740345 0-2.8602198-2.2222222-3.7871361-5.0141117-3.7871361h-2.0952168v7.6611706zm-19.5432263 4.9524658-2.9500892-9.5291147h-.0631313l-3.0139631 9.5023767c.8964646.3409091 1.9399881.5362448 3.0466429.5362448 1.0821449 0 2.0944741-.1871657 2.9805407-.5095068m32.3343731-8.5346108c0 6.3361557-4.3946821 10.1143791-11.8166964 10.1143791h-3.0696672v9.1273024h-14.0790256l-1.3948306-4.3664587c-1.489899.4879679-3.1758765.7605466-4.954694.7605466-1.8322936 0-3.5576352-.2889186-5.0727867-.802139l-1.4497921 4.4080511h-8.6311646l.9506833-2.5490196c-.1136363.1010101-.2287581.2049911-.3468508.3000594-2.1538919 1.729798-4.8440285 2.6841949-8.1810755 2.7443553l-.4946524.0037136c-3.82575756 0-7.58392749-1.0576351-10.75683302-2.8631907l2.9352347-5.828877c3.17810458 1.8783423 5.17453951 2.2994652 7.86987522 2.2452466 1.3955734-.0259953 2.4034462-.2814914 3.0637255-.9625669.3973559-.4159239.6097742-.9291443.6216577-1.481729.0274807-1.5151515-2.1271538-2.2251931-4.7645573-3.0399584-2.1382947-.6647356-4.56699345-1.5686275-6.46093285-2.9575164-2.24747475-1.6525549-3.31699346-3.7195484-3.26500297-6.6377005.0349079-2.1212121.81922163-4.0329768 2.27495544-5.5421866 2.08778966-2.1583482 5.46048722-3.47222219 9.50460488-3.47222219h.0230244c3.4677658.00594177 7.6990493.98781937 10.7672311 2.54753419l-3.3095663 5.751634c-3.3519013-1.6198753-5.0401069-1.7713904-6.9518716-1.8746287-2.8423946-.1552287-4.28253122.8652704-4.30035653 1.9607843-.02376708 1.3361557 2.68642303 2.5475342 5.25178253 3.368984 3.8784908 1.2336601 8.8079323 2.8825015 9.5565954 7.6440879l7.0907605-18.89557335h8.2323232l8.3028818 22.59506835v-22.59506835l9.5031194.00297089c9.0864528 0 13.3519014 3.23826496 13.3519014 10.29411766m-70.65062388 28.4893048v-47.76143791h96.55377298l-47.7592097 47.76143791z" mask="url(#a)" transform="translate(-.029412 .235071)"/><path d="m2.92082591 3.363265v-1.10294117h.738265c.37136066 0 .77094474.07872846.77094474.52287581 0 .55109923-.40775401.58006536-.8600713.58006536zm0 .46048723h.62314319l.93954249 1.54708853h.60977421l-1.02049911-1.57308378c.5258467-.06090315.92765894-.34165181.92765894-.98039216 0-.70484254-.41740939-1.01752822-1.25891265-1.01752822h-1.36066548v3.57100416h.53995841zm.65730837 2.86096257c1.68374926 0 3.12908497-1.31387404 3.12908497-3.10531789 0-1.77956031-1.44533571-3.09046346-3.12908497-3.09046346-1.70603089 0-3.14542483 1.31090315-3.14542483 3.09046346 0 1.79144385 1.43939394 3.10531789 3.14542483 3.10531789zm-2.5245098-3.10531789c0-1.46687463 1.1073975-2.57724302 2.5245098-2.57724302 1.39780155 0 2.50519905 1.11036839 2.50519905 2.57724302 0 1.49138443-1.1073975 2.58764112-2.50519905 2.58764112-1.4171123 0-2.5245098-1.09625669-2.5245098-2.58764112z" mask="url(#b)" transform="translate(59.388294 41.827466)"/></g></svg>